solid Visualization Toolkit generated SLA File
 facet normal 0.694889 -0.671596 0.257075
  outer loop
   vertex -0.105625 -0.0119015 -0.109318
   vertex -0.105635 -0.0118595 -0.109181
   vertex -0.105642 -0.0119783 -0.109471
  endloop
 endfacet
 facet normal 0.694889 -0.671596 0.257075
  outer loop
   vertex -0.112148 -0.0185395 -0.109027
   vertex -0.112136 -0.0185395 -0.109059
   vertex -0.112154 -0.0185351 -0.108999
  endloop
 endfacet
 facet normal 0.694889 -0.671596 0.257075
  outer loop
   vertex -0.111187 -0.0156055 -0.10396
   vertex -0.111427 -0.0159429 -0.104191
   vertex -0.110996 -0.0153695 -0.103859
  endloop
 endfacet
 facet normal 0.694889 -0.671596 0.257075
  outer loop
   vertex -0.105778 -0.0115907 -0.108091
   vertex -0.105799 -0.0115855 -0.108021
   vertex -0.105769 -0.011602 -0.108146
  endloop
 endfacet
 facet normal 0.694889 -0.671596 0.257075
  outer loop
   vertex -0.105944 -0.0128165 -0.110845
   vertex -0.105941 -0.01281 -0.110836
   vertex -0.105948 -0.0128228 -0.110852
  endloop
 endfacet
 facet normal 0.694889 -0.671596 0.257075
  outer loop
   vertex -0.105953 -0.0115423 -0.107493
   vertex -0.106157 -0.011566 -0.107001
   vertex -0.105799 -0.0115855 -0.108021
  endloop
 endfacet
 facet normal 0.694889 -0.671596 0.257075
  outer loop
   vertex -0.105663 -0.0121472 -0.109855
   vertex -0.105642 -0.0119783 -0.109471
   vertex -0.10571 -0.012284 -0.110086
  endloop
 endfacet
 facet normal 0.694889 -0.671596 0.257075
  outer loop
   vertex -0.105663 -0.0117156 -0.108728
   vertex -0.105769 -0.011602 -0.108146
   vertex -0.105635 -0.0118595 -0.109181
  endloop
 endfacet
 facet normal 0.694889 -0.671596 0.257075
  outer loop
   vertex -0.109176 -0.0134684 -0.103813
   vertex -0.109285 -0.0135688 -0.10378
   vertex -0.109028 -0.0133443 -0.103889
  endloop
 endfacet
 facet normal 0.694889 -0.671596 0.257075
  outer loop
   vertex -0.110862 -0.0151973 -0.103773
   vertex -0.110996 -0.0153695 -0.103859
   vertex -0.11049 -0.0147708 -0.103663
  endloop
 endfacet
 facet normal 0.694889 -0.671596 0.257075
  outer loop
   vertex -0.110996 -0.0153695 -0.103859
   vertex -0.111427 -0.0159429 -0.104191
   vertex -0.11049 -0.0147708 -0.103663
  endloop
 endfacet
 facet normal 0.694889 -0.671596 0.257075
  outer loop
   vertex -0.111983 -0.0185567 -0.109518
   vertex -0.111854 -0.018531 -0.109799
   vertex -0.112136 -0.0185395 -0.109059
  endloop
 endfacet
 facet normal 0.694889 -0.671596 0.257075
  outer loop
   vertex -0.105635 -0.0118595 -0.109181
   vertex -0.105769 -0.011602 -0.108146
   vertex -0.105642 -0.0119783 -0.109471
  endloop
 endfacet
 facet normal 0.694889 -0.671596 0.257075
  outer loop
   vertex -0.105642 -0.0119783 -0.109471
   vertex -0.105769 -0.011602 -0.108146
   vertex -0.10571 -0.012284 -0.110086
  endloop
 endfacet
 facet normal 0.694889 -0.671596 0.257075
  outer loop
   vertex -0.112273 -0.0184794 -0.108532
   vertex -0.112154 -0.0185351 -0.108999
   vertex -0.112343 -0.0183739 -0.108066
  endloop
 endfacet
 facet normal 0.694889 -0.671596 0.257075
  outer loop
   vertex -0.111737 -0.0184994 -0.110032
   vertex -0.11149 -0.0183903 -0.110416
   vertex -0.111854 -0.018531 -0.109799
  endloop
 endfacet
 facet normal 0.694889 -0.671596 0.257075
  outer loop
   vertex -0.111854 -0.018531 -0.109799
   vertex -0.11149 -0.0183903 -0.110416
   vertex -0.112136 -0.0185395 -0.109059
  endloop
 endfacet
 facet normal 0.694889 -0.671596 0.257075
  outer loop
   vertex -0.112354 -0.0183603 -0.108002
   vertex -0.112343 -0.0183739 -0.108066
   vertex -0.11236 -0.018324 -0.10789
  endloop
 endfacet
 facet normal 0.694889 -0.671596 0.257075
  outer loop
   vertex -0.111477 -0.0160115 -0.104237
   vertex -0.111512 -0.0160663 -0.104285
   vertex -0.111427 -0.0159429 -0.104191
  endloop
 endfacet
 facet normal 0.694889 -0.671596 0.257075
  outer loop
   vertex -0.107659 -0.0151829 -0.112392
   vertex -0.107329 -0.0147907 -0.112259
   vertex -0.107934 -0.0154861 -0.11244
  endloop
 endfacet
 facet normal 0.694889 -0.671596 0.257075
  outer loop
   vertex -0.10571 -0.012284 -0.110086
   vertex -0.105769 -0.011602 -0.108146
   vertex -0.10577 -0.0124535 -0.110367
  endloop
 endfacet
 facet normal 0.694889 -0.671596 0.257075
  outer loop
   vertex -0.10577 -0.0124535 -0.110367
   vertex -0.105769 -0.011602 -0.108146
   vertex -0.105941 -0.01281 -0.110836
  endloop
 endfacet
 facet normal 0.694889 -0.671596 0.257075
  outer loop
   vertex -0.107371 -0.0120949 -0.105103
   vertex -0.107371 -0.0120952 -0.105103
   vertex -0.10737 -0.0120946 -0.105104
  endloop
 endfacet
 facet normal 0.694889 -0.671596 0.257075
  outer loop
   vertex -0.110718 -0.017951 -0.111354
   vertex -0.110455 -0.0177667 -0.111584
   vertex -0.110879 -0.0180492 -0.111177
  endloop
 endfacet
 facet normal 0.694889 -0.671596 0.257076
  outer loop
   vertex -0.108035 -0.0155994 -0.112463
   vertex -0.107934 -0.0154861 -0.11244
   vertex -0.108112 -0.015679 -0.112464
  endloop
 endfacet
 facet normal 0.694889 -0.671596 0.257076
  outer loop
   vertex -0.110329 -0.0176793 -0.111697
   vertex -0.11019 -0.0175731 -0.111796
   vertex -0.110455 -0.0177667 -0.111584
  endloop
 endfacet
 facet normal 0.694889 -0.671596 0.257075
  outer loop
   vertex -0.111736 -0.0164053 -0.104565
   vertex -0.111865 -0.0166259 -0.104792
   vertex -0.111512 -0.0160663 -0.104285
  endloop
 endfacet
 facet normal 0.694889 -0.671596 0.257075
  outer loop
   vertex -0.111443 -0.0183688 -0.110487
   vertex -0.111364 -0.0183251 -0.110585
   vertex -0.11149 -0.0183903 -0.110416
  endloop
 endfacet
 facet normal 0.694889 -0.671596 0.257075
  outer loop
   vertex -0.11149 -0.0183903 -0.110416
   vertex -0.111364 -0.0183251 -0.110585
   vertex -0.112136 -0.0185395 -0.109059
  endloop
 endfacet
 facet normal 0.694889 -0.671596 0.257075
  outer loop
   vertex -0.111364 -0.0183251 -0.110585
   vertex -0.111102 -0.0181866 -0.110931
   vertex -0.112136 -0.0185395 -0.109059
  endloop
 endfacet
 facet normal 0.694889 -0.671596 0.257075
  outer loop
   vertex -0.111102 -0.0181866 -0.110931
   vertex -0.110879 -0.0180492 -0.111177
   vertex -0.112136 -0.0185395 -0.109059
  endloop
 endfacet
 facet normal 0.694889 -0.671596 0.257075
  outer loop
   vertex -0.110879 -0.0180492 -0.111177
   vertex -0.110455 -0.0177667 -0.111584
   vertex -0.112136 -0.0185395 -0.109059
  endloop
 endfacet
 facet normal 0.694889 -0.671596 0.257075
  outer loop
   vertex -0.110455 -0.0177667 -0.111584
   vertex -0.11019 -0.0175731 -0.111796
   vertex -0.112136 -0.0185395 -0.109059
  endloop
 endfacet
 facet normal 0.694889 -0.671596 0.257075
  outer loop
   vertex -0.11019 -0.0175731 -0.111796
   vertex -0.109921 -0.0173692 -0.111988
   vertex -0.112136 -0.0185395 -0.109059
  endloop
 endfacet
 facet normal 0.694889 -0.671596 0.257075
  outer loop
   vertex -0.110487 -0.0147674 -0.103662
   vertex -0.11049 -0.0147708 -0.103663
   vertex -0.110486 -0.0147662 -0.103662
  endloop
 endfacet
 facet normal 0.694889 -0.671596 0.257075
  outer loop
   vertex -0.112056 -0.0169774 -0.105195
   vertex -0.112129 -0.0171406 -0.105423
   vertex -0.111934 -0.0167493 -0.104927
  endloop
 endfacet
 facet normal 0.694889 -0.671596 0.257076
  outer loop
   vertex -0.112129 -0.0171406 -0.105423
   vertex -0.112221 -0.0173716 -0.105777
   vertex -0.111934 -0.0167493 -0.104927
  endloop
 endfacet
 facet normal 0.694889 -0.671596 0.257075
  outer loop
   vertex -0.1096 -0.0138587 -0.103687
   vertex -0.109923 -0.0141742 -0.103636
   vertex -0.109285 -0.0135688 -0.10378
  endloop
 endfacet
 facet normal 0.694889 -0.671596 0.257075
  outer loop
   vertex -0.109285 -0.0135688 -0.10378
   vertex -0.109923 -0.0141742 -0.103636
   vertex -0.109028 -0.0133443 -0.103889
  endloop
 endfacet
 facet normal 0.694889 -0.671596 0.257075
  outer loop
   vertex -0.108378 -0.0128066 -0.104241
   vertex -0.108559 -0.0129535 -0.104134
   vertex -0.108207 -0.0126781 -0.104366
  endloop
 endfacet
 facet normal 0.694889 -0.671596 0.257076
  outer loop
   vertex -0.106991 -0.0143777 -0.112095
   vertex -0.106859 -0.0142051 -0.111999
   vertex -0.107306 -0.0147627 -0.112247
  endloop
 endfacet
 facet normal 0.694889 -0.671596 0.257075
  outer loop
   vertex -0.108771 -0.0131239 -0.104008
   vertex -0.109028 -0.0133443 -0.103889
   vertex -0.108559 -0.0129535 -0.104134
  endloop
 endfacet
 facet normal 0.694889 -0.671596 0.257075
  outer loop
   vertex -0.109028 -0.0133443 -0.103889
   vertex -0.109923 -0.0141742 -0.103636
   vertex -0.108559 -0.0129535 -0.104134
  endloop
 endfacet
 facet normal 0.694889 -0.671596 0.257075
  outer loop
   vertex -0.108559 -0.0129535 -0.104134
   vertex -0.109923 -0.0141742 -0.103636
   vertex -0.108207 -0.0126781 -0.104366
  endloop
 endfacet
 facet normal 0.694889 -0.671596 0.257075
  outer loop
   vertex -0.106695 -0.0139889 -0.111879
   vertex -0.106474 -0.0136776 -0.111662
   vertex -0.106859 -0.0142051 -0.111999
  endloop
 endfacet
 facet normal 0.694889 -0.671596 0.257075
  outer loop
   vertex -0.106859 -0.0142051 -0.111999
   vertex -0.106474 -0.0136776 -0.111662
   vertex -0.107306 -0.0147627 -0.112247
  endloop
 endfacet
 facet normal 0.694889 -0.671596 0.257075
  outer loop
   vertex -0.107703 -0.0123104 -0.104767
   vertex -0.107897 -0.0124484 -0.104604
   vertex -0.107371 -0.0120952 -0.105103
  endloop
 endfacet
 facet normal 0.694889 -0.671596 0.257076
  outer loop
   vertex -0.108984 -0.0165534 -0.112392
   vertex -0.108907 -0.0164788 -0.112404
   vertex -0.109198 -0.0167485 -0.112323
  endloop
 endfacet
 facet normal 0.694889 -0.671596 0.257075
  outer loop
   vertex -0.110083 -0.0143356 -0.103625
   vertex -0.110486 -0.0147662 -0.103662
   vertex -0.109923 -0.0141742 -0.103636
  endloop
 endfacet
 facet normal 0.694889 -0.671596 0.257075
  outer loop
   vertex -0.109923 -0.0141742 -0.103636
   vertex -0.110486 -0.0147662 -0.103662
   vertex -0.108207 -0.0126781 -0.104366
  endloop
 endfacet
 facet normal 0.694889 -0.671596 0.257076
  outer loop
   vertex -0.107053 -0.0119099 -0.105478
   vertex -0.10737 -0.0120946 -0.105104
   vertex -0.106884 -0.0118238 -0.105712
  endloop
 endfacet
 facet normal 0.694889 -0.671596 0.257075
  outer loop
   vertex -0.106202 -0.0115685 -0.106888
   vertex -0.106225 -0.0115739 -0.106838
   vertex -0.106157 -0.011566 -0.107001
  endloop
 endfacet
 facet normal 0.694889 -0.671596 0.257075
  outer loop
   vertex -0.106225 -0.0115739 -0.106838
   vertex -0.106391 -0.0116273 -0.106531
   vertex -0.106157 -0.011566 -0.107001
  endloop
 endfacet
 facet normal 0.694889 -0.671596 0.257075
  outer loop
   vertex -0.106157 -0.011566 -0.107001
   vertex -0.106391 -0.0116273 -0.106531
   vertex -0.105799 -0.0115855 -0.108021
  endloop
 endfacet
 facet normal 0.694889 -0.671596 0.257075
  outer loop
   vertex -0.10858 -0.0161631 -0.112462
   vertex -0.108407 -0.0159869 -0.11247
   vertex -0.108907 -0.0164788 -0.112404
  endloop
 endfacet
 facet normal 0.694889 -0.671596 0.257076
  outer loop
   vertex -0.108407 -0.0159869 -0.11247
   vertex -0.108112 -0.015679 -0.112464
   vertex -0.108907 -0.0164788 -0.112404
  endloop
 endfacet
 facet normal 0.694889 -0.671596 0.257075
  outer loop
   vertex -0.108907 -0.0164788 -0.112404
   vertex -0.108112 -0.015679 -0.112464
   vertex -0.109198 -0.0167485 -0.112323
  endloop
 endfacet
 facet normal 0.694889 -0.671596 0.257075
  outer loop
   vertex -0.108112 -0.015679 -0.112464
   vertex -0.107934 -0.0154861 -0.11244
   vertex -0.109198 -0.0167485 -0.112323
  endloop
 endfacet
 facet normal 0.694889 -0.671596 0.257075
  outer loop
   vertex -0.107934 -0.0154861 -0.11244
   vertex -0.107329 -0.0147907 -0.112259
   vertex -0.109198 -0.0167485 -0.112323
  endloop
 endfacet
 facet normal 0.694889 -0.671596 0.257075
  outer loop
   vertex -0.106391 -0.0116273 -0.106531
   vertex -0.106534 -0.0116717 -0.106259
   vertex -0.105799 -0.0115855 -0.108021
  endloop
 endfacet
 facet normal 0.694889 -0.671596 0.257075
  outer loop
   vertex -0.112377 -0.0179663 -0.106909
   vertex -0.112384 -0.0181012 -0.107245
   vertex -0.112343 -0.0177797 -0.106515
  endloop
 endfacet
 facet normal 0.694889 -0.671596 0.257075
  outer loop
   vertex -0.108207 -0.0126781 -0.104366
   vertex -0.110486 -0.0147662 -0.103662
   vertex -0.108033 -0.0125455 -0.104491
  endloop
 endfacet
 facet normal 0.694889 -0.671596 0.257075
  outer loop
   vertex -0.112386 -0.0181837 -0.107454
   vertex -0.11236 -0.018324 -0.10789
   vertex -0.112384 -0.0181012 -0.107245
  endloop
 endfacet
 facet normal 0.694889 -0.671596 0.257075
  outer loop
   vertex -0.112384 -0.0181012 -0.107245
   vertex -0.11236 -0.018324 -0.10789
   vertex -0.112343 -0.0177797 -0.106515
  endloop
 endfacet
 facet normal 0.694889 -0.671596 0.257075
  outer loop
   vertex -0.111427 -0.0159429 -0.104191
   vertex -0.111512 -0.0160663 -0.104285
   vertex -0.11049 -0.0147708 -0.103663
  endloop
 endfacet
 facet normal 0.694889 -0.671596 0.257075
  outer loop
   vertex -0.111512 -0.0160663 -0.104285
   vertex -0.111865 -0.0166259 -0.104792
   vertex -0.11049 -0.0147708 -0.103663
  endloop
 endfacet
 facet normal 0.694889 -0.671596 0.257075
  outer loop
   vertex -0.111865 -0.0166259 -0.104792
   vertex -0.111934 -0.0167493 -0.104927
   vertex -0.11049 -0.0147708 -0.103663
  endloop
 endfacet
 facet normal 0.694889 -0.671596 0.257075
  outer loop
   vertex -0.111934 -0.0167493 -0.104927
   vertex -0.112221 -0.0173716 -0.105777
   vertex -0.11049 -0.0147708 -0.103663
  endloop
 endfacet
 facet normal 0.694889 -0.671596 0.257076
  outer loop
   vertex -0.112246 -0.0174356 -0.105879
   vertex -0.11228 -0.0175571 -0.106103
   vertex -0.112221 -0.0173716 -0.105777
  endloop
 endfacet
 facet normal 0.694889 -0.671596 0.257075
  outer loop
   vertex -0.112221 -0.0173716 -0.105777
   vertex -0.11228 -0.0175571 -0.106103
   vertex -0.11049 -0.0147708 -0.103663
  endloop
 endfacet
 facet normal 0.694889 -0.671596 0.257075
  outer loop
   vertex -0.11228 -0.0175571 -0.106103
   vertex -0.112329 -0.0177136 -0.106379
   vertex -0.11049 -0.0147708 -0.103663
  endloop
 endfacet
 facet normal 0.694889 -0.671596 0.257075
  outer loop
   vertex -0.112343 -0.0183739 -0.108066
   vertex -0.112154 -0.0185351 -0.108999
   vertex -0.11236 -0.018324 -0.10789
  endloop
 endfacet
 facet normal 0.694889 -0.671596 0.257075
  outer loop
   vertex -0.11236 -0.018324 -0.10789
   vertex -0.112154 -0.0185351 -0.108999
   vertex -0.112343 -0.0177797 -0.106515
  endloop
 endfacet
 facet normal 0.694889 -0.671596 0.257076
  outer loop
   vertex -0.108033 -0.0125455 -0.104491
   vertex -0.110486 -0.0147662 -0.103662
   vertex -0.107897 -0.0124484 -0.104604
  endloop
 endfacet
 facet normal 0.694889 -0.671596 0.257075
  outer loop
   vertex -0.107897 -0.0124484 -0.104604
   vertex -0.110486 -0.0147662 -0.103662
   vertex -0.107371 -0.0120952 -0.105103
  endloop
 endfacet
 facet normal 0.694889 -0.671596 0.257075
  outer loop
   vertex -0.106801 -0.0117818 -0.105826
   vertex -0.106884 -0.0118238 -0.105712
   vertex -0.106565 -0.0116835 -0.106207
  endloop
 endfacet
 facet normal 0.694889 -0.671596 0.257075
  outer loop
   vertex -0.106884 -0.0118238 -0.105712
   vertex -0.10737 -0.0120946 -0.105104
   vertex -0.106565 -0.0116835 -0.106207
  endloop
 endfacet
 facet normal 0.694889 -0.671596 0.257075
  outer loop
   vertex -0.109921 -0.0173692 -0.111988
   vertex -0.109802 -0.0172715 -0.112056
   vertex -0.112136 -0.0185395 -0.109059
  endloop
 endfacet
 facet normal 0.694889 -0.671596 0.257075
  outer loop
   vertex -0.109802 -0.0172715 -0.112056
   vertex -0.109419 -0.0169492 -0.112249
   vertex -0.112136 -0.0185395 -0.109059
  endloop
 endfacet
 facet normal 0.694889 -0.671596 0.257075
  outer loop
   vertex -0.109198 -0.0167485 -0.112323
   vertex -0.107329 -0.0147907 -0.112259
   vertex -0.109364 -0.0169012 -0.112272
  endloop
 endfacet
 facet normal 0.694889 -0.671596 0.257075
  outer loop
   vertex -0.107322 -0.0147819 -0.112256
   vertex -0.107306 -0.0147627 -0.112247
   vertex -0.107329 -0.0147907 -0.112259
  endloop
 endfacet
 facet normal 0.694889 -0.671596 0.257075
  outer loop
   vertex -0.105769 -0.011602 -0.108146
   vertex -0.105799 -0.0115855 -0.108021
   vertex -0.105941 -0.01281 -0.110836
  endloop
 endfacet
 facet normal 0.694889 -0.671596 0.257075
  outer loop
   vertex -0.105799 -0.0115855 -0.108021
   vertex -0.106534 -0.0116717 -0.106259
   vertex -0.105941 -0.01281 -0.110836
  endloop
 endfacet
 facet normal 0.694889 -0.671596 0.257075
  outer loop
   vertex -0.112329 -0.0177136 -0.106379
   vertex -0.112343 -0.0177797 -0.106515
   vertex -0.11049 -0.0147708 -0.103663
  endloop
 endfacet
 facet normal 0.694889 -0.671596 0.257075
  outer loop
   vertex -0.112343 -0.0177797 -0.106515
   vertex -0.112154 -0.0185351 -0.108999
   vertex -0.11049 -0.0147708 -0.103663
  endloop
 endfacet
 facet normal 0.694889 -0.671596 0.257075
  outer loop
   vertex -0.106474 -0.0136776 -0.111662
   vertex -0.106404 -0.0135749 -0.111584
   vertex -0.107306 -0.0147627 -0.112247
  endloop
 endfacet
 facet normal 0.694889 -0.671596 0.257075
  outer loop
   vertex -0.106404 -0.0135749 -0.111584
   vertex -0.1062 -0.0132607 -0.111315
   vertex -0.107306 -0.0147627 -0.112247
  endloop
 endfacet
 facet normal 0.694889 -0.671596 0.257075
  outer loop
   vertex -0.106163 -0.0132016 -0.11126
   vertex -0.105948 -0.0128228 -0.110852
   vertex -0.1062 -0.0132607 -0.111315
  endloop
 endfacet
 facet normal 0.694889 -0.671596 0.257075
  outer loop
   vertex -0.1062 -0.0132607 -0.111315
   vertex -0.105948 -0.0128228 -0.110852
   vertex -0.107306 -0.0147627 -0.112247
  endloop
 endfacet
 facet normal 0.694889 -0.671596 0.257075
  outer loop
   vertex -0.109419 -0.0169492 -0.112249
   vertex -0.109364 -0.0169012 -0.112272
   vertex -0.112136 -0.0185395 -0.109059
  endloop
 endfacet
 facet normal 0.694889 -0.671596 0.257075
  outer loop
   vertex -0.109364 -0.0169012 -0.112272
   vertex -0.107329 -0.0147907 -0.112259
   vertex -0.112136 -0.0185395 -0.109059
  endloop
 endfacet
 facet normal 0.694889 -0.671596 0.257075
  outer loop
   vertex -0.112136 -0.0185395 -0.109059
   vertex -0.107329 -0.0147907 -0.112259
   vertex -0.112154 -0.0185351 -0.108999
  endloop
 endfacet
 facet normal 0.694889 -0.671596 0.257075
  outer loop
   vertex -0.112154 -0.0185351 -0.108999
   vertex -0.107329 -0.0147907 -0.112259
   vertex -0.11049 -0.0147708 -0.103663
  endloop
 endfacet
 facet normal 0.694889 -0.671596 0.257075
  outer loop
   vertex -0.106534 -0.0116717 -0.106259
   vertex -0.106565 -0.0116835 -0.106207
   vertex -0.105941 -0.01281 -0.110836
  endloop
 endfacet
 facet normal 0.694889 -0.671596 0.257075
  outer loop
   vertex -0.106565 -0.0116835 -0.106207
   vertex -0.10737 -0.0120946 -0.105104
   vertex -0.105941 -0.01281 -0.110836
  endloop
 endfacet
 facet normal 0.694889 -0.671596 0.257075
  outer loop
   vertex -0.107329 -0.0147907 -0.112259
   vertex -0.107306 -0.0147627 -0.112247
   vertex -0.11049 -0.0147708 -0.103663
  endloop
 endfacet
 facet normal 0.694889 -0.671596 0.257075
  outer loop
   vertex -0.107306 -0.0147627 -0.112247
   vertex -0.105948 -0.0128228 -0.110852
   vertex -0.11049 -0.0147708 -0.103663
  endloop
 endfacet
 facet normal 0.694889 -0.671596 0.257075
  outer loop
   vertex -0.105941 -0.01281 -0.110836
   vertex -0.10737 -0.0120946 -0.105104
   vertex -0.105948 -0.0128228 -0.110852
  endloop
 endfacet
 facet normal 0.694889 -0.671596 0.257075
  outer loop
   vertex -0.105948 -0.0128228 -0.110852
   vertex -0.10737 -0.0120946 -0.105104
   vertex -0.11049 -0.0147708 -0.103663
  endloop
 endfacet
 facet normal 0.694889 -0.671596 0.257075
  outer loop
   vertex -0.110486 -0.0147662 -0.103662
   vertex -0.11049 -0.0147708 -0.103663
   vertex -0.107371 -0.0120952 -0.105103
  endloop
 endfacet
 facet normal 0.694889 -0.671596 0.257075
  outer loop
   vertex -0.11049 -0.0147708 -0.103663
   vertex -0.10737 -0.0120946 -0.105104
   vertex -0.107371 -0.0120952 -0.105103
  endloop
 endfacet
endsolid
