solid Visualization Toolkit generated SLA File
 facet normal -0.393491 -0.472324 0.788717
  outer loop
   vertex 0.0481734 0.0639952 -0.155553
   vertex 0.0481783 0.0640027 -0.155546
   vertex 0.0481685 0.0639905 -0.155558
  endloop
 endfacet
 facet normal -0.393491 -0.472324 0.788717
  outer loop
   vertex 0.0428536 0.0636961 -0.158386
   vertex 0.0430878 0.0635689 -0.158346
   vertex 0.0426215 0.0638623 -0.158403
  endloop
 endfacet
 facet normal -0.393491 -0.472324 0.788717
  outer loop
   vertex 0.0417033 0.0711992 -0.154467
   vertex 0.0413178 0.070963 -0.154801
   vertex 0.0418794 0.0712601 -0.154343
  endloop
 endfacet
 facet normal -0.393491 -0.472324 0.788717
  outer loop
   vertex 0.0484601 0.064409 -0.155162
   vertex 0.0486024 0.0647312 -0.154898
   vertex 0.0481783 0.0640027 -0.155546
  endloop
 endfacet
 facet normal -0.393491 -0.472324 0.788717
  outer loop
   vertex 0.0434763 0.0714691 -0.153421
   vertex 0.0432372 0.0714702 -0.153539
   vertex 0.0436649 0.0714434 -0.153342
  endloop
 endfacet
 facet normal -0.393491 -0.472324 0.788717
  outer loop
   vertex 0.0478634 0.0636766 -0.155899
   vertex 0.0481685 0.0639905 -0.155558
   vertex 0.0476685 0.063538 -0.156079
  endloop
 endfacet
 facet normal -0.393491 -0.472324 0.788717
  outer loop
   vertex 0.0472356 0.0697149 -0.152596
   vertex 0.0469611 0.0699449 -0.152595
   vertex 0.0474375 0.0695065 -0.15262
  endloop
 endfacet
 facet normal -0.393491 -0.472324 0.788717
  outer loop
   vertex 0.0468168 0.0700688 -0.152593
   vertex 0.0467047 0.0701464 -0.152602
   vertex 0.0469611 0.0699449 -0.152595
  endloop
 endfacet
 facet normal -0.393491 -0.472324 0.788717
  outer loop
   vertex 0.0486449 0.0648212 -0.154823
   vertex 0.0487182 0.0651392 -0.154596
   vertex 0.0486024 0.0647312 -0.154898
  endloop
 endfacet
 facet normal -0.393491 -0.472324 0.788717
  outer loop
   vertex 0.0486024 0.0647312 -0.154898
   vertex 0.0487182 0.0651392 -0.154596
   vertex 0.0481783 0.0640027 -0.155546
  endloop
 endfacet
 facet normal -0.393491 -0.472324 0.788717
  outer loop
   vertex 0.0430042 0.0714778 -0.153651
   vertex 0.042811 0.0714593 -0.153759
   vertex 0.0432372 0.0714702 -0.153539
  endloop
 endfacet
 facet normal -0.393491 -0.472324 0.788717
  outer loop
   vertex 0.0421661 0.0713638 -0.154138
   vertex 0.0418794 0.0712601 -0.154343
   vertex 0.042355 0.0714014 -0.154021
  endloop
 endfacet
 facet normal -0.393491 -0.472324 0.788717
  outer loop
   vertex 0.0418794 0.0712601 -0.154343
   vertex 0.0413178 0.070963 -0.154801
   vertex 0.042355 0.0714014 -0.154021
  endloop
 endfacet
 facet normal -0.393491 -0.472324 0.788717
  outer loop
   vertex 0.0464277 0.0630137 -0.157012
   vertex 0.0465065 0.0630353 -0.15696
   vertex 0.0463492 0.0630035 -0.157057
  endloop
 endfacet
 facet normal -0.393491 -0.472324 0.788717
  outer loop
   vertex 0.0484583 0.0679309 -0.153054
   vertex 0.0482639 0.0683411 -0.152906
   vertex 0.0485123 0.0677591 -0.15313
  endloop
 endfacet
 facet normal -0.393491 -0.472324 0.788717
  outer loop
   vertex 0.0440478 0.0631552 -0.158115
   vertex 0.0443 0.0630945 -0.158025
   vertex 0.0438395 0.0632301 -0.158174
  endloop
 endfacet
 facet normal -0.393491 -0.472324 0.788717
  outer loop
   vertex 0.0476137 0.0693218 -0.152643
   vertex 0.0474375 0.0695065 -0.15262
   vertex 0.047826 0.0690476 -0.152701
  endloop
 endfacet
 facet normal -0.393491 -0.472324 0.788717
  outer loop
   vertex 0.0474375 0.0695065 -0.15262
   vertex 0.0469611 0.0699449 -0.152595
   vertex 0.047826 0.0690476 -0.152701
  endloop
 endfacet
 facet normal -0.393491 -0.472324 0.788717
  outer loop
   vertex 0.0468175 0.0631045 -0.156763
   vertex 0.0471171 0.0632166 -0.156546
   vertex 0.0465065 0.0630353 -0.15696
  endloop
 endfacet
 facet normal -0.393491 -0.472324 0.788717
  outer loop
   vertex 0.0439626 0.071407 -0.153215
   vertex 0.0436649 0.0714434 -0.153342
   vertex 0.0444421 0.0712898 -0.153046
  endloop
 endfacet
 facet normal -0.393491 -0.472324 0.788717
  outer loop
   vertex 0.0436649 0.0714434 -0.153342
   vertex 0.0432372 0.0714702 -0.153539
   vertex 0.0444421 0.0712898 -0.153046
  endloop
 endfacet
 facet normal -0.393491 -0.472324 0.788717
  outer loop
   vertex 0.0432372 0.0714702 -0.153539
   vertex 0.042811 0.0714593 -0.153759
   vertex 0.0444421 0.0712898 -0.153046
  endloop
 endfacet
 facet normal -0.393491 -0.472324 0.788717
  outer loop
   vertex 0.0435731 0.0633286 -0.158248
   vertex 0.0438395 0.0632301 -0.158174
   vertex 0.0433447 0.0634395 -0.158295
  endloop
 endfacet
 facet normal -0.393491 -0.472324 0.788717
  outer loop
   vertex 0.0438395 0.0632301 -0.158174
   vertex 0.0443 0.0630945 -0.158025
   vertex 0.0433447 0.0634395 -0.158295
  endloop
 endfacet
 facet normal -0.393491 -0.472324 0.788717
  outer loop
   vertex 0.047884 0.068976 -0.152715
   vertex 0.047826 0.0690476 -0.152701
   vertex 0.0479908 0.0688089 -0.152762
  endloop
 endfacet
 facet normal -0.393491 -0.472324 0.788717
  outer loop
   vertex 0.047826 0.0690476 -0.152701
   vertex 0.0469611 0.0699449 -0.152595
   vertex 0.0479908 0.0688089 -0.152762
  endloop
 endfacet
 facet normal -0.393491 -0.472324 0.788717
  outer loop
   vertex 0.0469611 0.0699449 -0.152595
   vertex 0.0467047 0.0701464 -0.152602
   vertex 0.0479908 0.0688089 -0.152762
  endloop
 endfacet
 facet normal -0.393491 -0.472324 0.788717
  outer loop
   vertex 0.0467047 0.0701464 -0.152602
   vertex 0.0463878 0.0703667 -0.152629
   vertex 0.0479908 0.0688089 -0.152762
  endloop
 endfacet
 facet normal -0.393491 -0.472324 0.788717
  outer loop
   vertex 0.0463878 0.0703667 -0.152629
   vertex 0.0460411 0.0705859 -0.15267
   vertex 0.0479908 0.0688089 -0.152762
  endloop
 endfacet
 facet normal -0.393491 -0.472324 0.788717
  outer loop
   vertex 0.0479908 0.0688089 -0.152762
   vertex 0.0460411 0.0705859 -0.15267
   vertex 0.0481629 0.0685468 -0.152833
  endloop
 endfacet
 facet normal -0.393491 -0.472324 0.788717
  outer loop
   vertex 0.0425523 0.0714403 -0.153899
   vertex 0.042355 0.0714014 -0.154021
   vertex 0.042811 0.0714593 -0.153759
  endloop
 endfacet
 facet normal -0.393491 -0.472324 0.788717
  outer loop
   vertex 0.042355 0.0714014 -0.154021
   vertex 0.0413178 0.070963 -0.154801
   vertex 0.042811 0.0714593 -0.153759
  endloop
 endfacet
 facet normal -0.393491 -0.472324 0.788717
  outer loop
   vertex 0.042811 0.0714593 -0.153759
   vertex 0.0413178 0.070963 -0.154801
   vertex 0.0444421 0.0712898 -0.153046
  endloop
 endfacet
 facet normal -0.393491 -0.472324 0.788717
  outer loop
   vertex 0.0426215 0.0638623 -0.158403
   vertex 0.0430878 0.0635689 -0.158346
   vertex 0.0423337 0.0640813 -0.158415
  endloop
 endfacet
 facet normal -0.393491 -0.472324 0.788717
  outer loop
   vertex 0.0430878 0.0635689 -0.158346
   vertex 0.0433447 0.0634395 -0.158295
   vertex 0.0423337 0.0640813 -0.158415
  endloop
 endfacet
 facet normal -0.393491 -0.472324 0.788717
  outer loop
   vertex 0.0433447 0.0634395 -0.158295
   vertex 0.0443 0.0630945 -0.158025
   vertex 0.0423337 0.0640813 -0.158415
  endloop
 endfacet
 facet normal -0.393491 -0.472324 0.788717
  outer loop
   vertex 0.0443 0.0630945 -0.158025
   vertex 0.0445775 0.0630312 -0.157924
   vertex 0.0423337 0.0640813 -0.158415
  endloop
 endfacet
 facet normal -0.393491 -0.472324 0.788717
  outer loop
   vertex 0.0413712 0.0650724 -0.158302
   vertex 0.0415236 0.0648937 -0.158333
   vertex 0.0413129 0.0651565 -0.158281
  endloop
 endfacet
 facet normal -0.393491 -0.472324 0.788717
  outer loop
   vertex 0.0472238 0.063257 -0.156469
   vertex 0.047532 0.0634376 -0.156207
   vertex 0.0471171 0.0632166 -0.156546
  endloop
 endfacet
 facet normal -0.393491 -0.472324 0.788717
  outer loop
   vertex 0.0471171 0.0632166 -0.156546
   vertex 0.047532 0.0634376 -0.156207
   vertex 0.0465065 0.0630353 -0.15696
  endloop
 endfacet
 facet normal -0.393491 -0.472324 0.788717
  outer loop
   vertex 0.0485123 0.0677591 -0.15313
   vertex 0.0482639 0.0683411 -0.152906
   vertex 0.0486271 0.0673946 -0.153291
  endloop
 endfacet
 facet normal -0.393491 -0.472324 0.788717
  outer loop
   vertex 0.0405696 0.0664659 -0.157867
   vertex 0.040675 0.066244 -0.157947
   vertex 0.0404497 0.0667919 -0.157732
  endloop
 endfacet
 facet normal -0.393491 -0.472324 0.788717
  outer loop
   vertex 0.0445775 0.0630312 -0.157924
   vertex 0.0448055 0.0629907 -0.157835
   vertex 0.0423337 0.0640813 -0.158415
  endloop
 endfacet
 facet normal -0.393491 -0.472324 0.788717
  outer loop
   vertex 0.0448055 0.0629907 -0.157835
   vertex 0.045101 0.0629549 -0.157709
   vertex 0.0423337 0.0640813 -0.158415
  endloop
 endfacet
 facet normal -0.393491 -0.472324 0.788717
  outer loop
   vertex 0.045101 0.0629549 -0.157709
   vertex 0.0453253 0.0629452 -0.157603
   vertex 0.0423337 0.0640813 -0.158415
  endloop
 endfacet
 facet normal -0.393491 -0.472324 0.788717
  outer loop
   vertex 0.0453253 0.0629452 -0.157603
   vertex 0.0457047 0.0629503 -0.157411
   vertex 0.0423337 0.0640813 -0.158415
  endloop
 endfacet
 facet normal -0.393491 -0.472324 0.788717
  outer loop
   vertex 0.0410626 0.0655182 -0.158189
   vertex 0.0413129 0.0651565 -0.158281
   vertex 0.0409026 0.0657951 -0.158103
  endloop
 endfacet
 facet normal -0.393491 -0.472324 0.788717
  outer loop
   vertex 0.0413129 0.0651565 -0.158281
   vertex 0.0415236 0.0648937 -0.158333
   vertex 0.0409026 0.0657951 -0.158103
  endloop
 endfacet
 facet normal -0.393491 -0.472324 0.788717
  outer loop
   vertex 0.0412721 0.0709344 -0.154841
   vertex 0.0410639 0.0707262 -0.155069
   vertex 0.0413178 0.070963 -0.154801
  endloop
 endfacet
 facet normal -0.393491 -0.472324 0.788717
  outer loop
   vertex 0.0413178 0.070963 -0.154801
   vertex 0.0410639 0.0707262 -0.155069
   vertex 0.0444421 0.0712898 -0.153046
  endloop
 endfacet
 facet normal -0.393491 -0.472324 0.788717
  outer loop
   vertex 0.0410639 0.0707262 -0.155069
   vertex 0.0409361 0.0706039 -0.155206
   vertex 0.0444421 0.0712898 -0.153046
  endloop
 endfacet
 facet normal -0.393491 -0.472324 0.788717
  outer loop
   vertex 0.0457047 0.0629503 -0.157411
   vertex 0.0459416 0.0629553 -0.157289
   vertex 0.0423337 0.0640813 -0.158415
  endloop
 endfacet
 facet normal -0.393491 -0.472324 0.788717
  outer loop
   vertex 0.0459416 0.0629553 -0.157289
   vertex 0.0463492 0.0630035 -0.157057
   vertex 0.0423337 0.0640813 -0.158415
  endloop
 endfacet
 facet normal -0.393491 -0.472324 0.788717
  outer loop
   vertex 0.0455453 0.0708608 -0.152753
   vertex 0.0451246 0.0710514 -0.152849
   vertex 0.0458003 0.0707219 -0.152709
  endloop
 endfacet
 facet normal -0.393491 -0.472324 0.788717
  outer loop
   vertex 0.0488131 0.0662103 -0.153908
   vertex 0.0487898 0.0664909 -0.153751
   vertex 0.0488104 0.0658537 -0.154122
  endloop
 endfacet
 facet normal -0.393491 -0.472324 0.788717
  outer loop
   vertex 0.0423337 0.0640813 -0.158415
   vertex 0.0463492 0.0630035 -0.157057
   vertex 0.042186 0.064205 -0.158415
  endloop
 endfacet
 facet normal -0.393491 -0.472324 0.788717
  outer loop
   vertex 0.042186 0.064205 -0.158415
   vertex 0.0463492 0.0630035 -0.157057
   vertex 0.0418231 0.0645439 -0.158393
  endloop
 endfacet
 facet normal -0.393491 -0.472324 0.788717
  outer loop
   vertex 0.045953 0.0706409 -0.152681
   vertex 0.0458003 0.0707219 -0.152709
   vertex 0.0460411 0.0705859 -0.15267
  endloop
 endfacet
 facet normal -0.393491 -0.472324 0.788717
  outer loop
   vertex 0.0460411 0.0705859 -0.15267
   vertex 0.0458003 0.0707219 -0.152709
   vertex 0.0481629 0.0685468 -0.152833
  endloop
 endfacet
 facet normal -0.393491 -0.472324 0.788717
  outer loop
   vertex 0.0458003 0.0707219 -0.152709
   vertex 0.0451246 0.0710514 -0.152849
   vertex 0.0481629 0.0685468 -0.152833
  endloop
 endfacet
 facet normal -0.393491 -0.472324 0.788717
  outer loop
   vertex 0.0407972 0.0659835 -0.158043
   vertex 0.0409026 0.0657951 -0.158103
   vertex 0.040675 0.066244 -0.157947
  endloop
 endfacet
 facet normal -0.393491 -0.472324 0.788717
  outer loop
   vertex 0.0409026 0.0657951 -0.158103
   vertex 0.0415236 0.0648937 -0.158333
   vertex 0.040675 0.066244 -0.157947
  endloop
 endfacet
 facet normal -0.393491 -0.472324 0.788717
  outer loop
   vertex 0.040675 0.066244 -0.157947
   vertex 0.0415236 0.0648937 -0.158333
   vertex 0.0404497 0.0667919 -0.157732
  endloop
 endfacet
 facet normal -0.393491 -0.472324 0.788717
  outer loop
   vertex 0.0415236 0.0648937 -0.158333
   vertex 0.0417339 0.0646368 -0.158382
   vertex 0.0404497 0.0667919 -0.157732
  endloop
 endfacet
 facet normal -0.393491 -0.472324 0.788717
  outer loop
   vertex 0.048195 0.0684904 -0.152851
   vertex 0.0481629 0.0685468 -0.152833
   vertex 0.0482639 0.0683411 -0.152906
  endloop
 endfacet
 facet normal -0.393491 -0.472324 0.788717
  outer loop
   vertex 0.0481629 0.0685468 -0.152833
   vertex 0.0451246 0.0710514 -0.152849
   vertex 0.0482639 0.0683411 -0.152906
  endloop
 endfacet
 facet normal -0.393491 -0.472324 0.788717
  outer loop
   vertex 0.0482639 0.0683411 -0.152906
   vertex 0.0451246 0.0710514 -0.152849
   vertex 0.0486271 0.0673946 -0.153291
  endloop
 endfacet
 facet normal -0.393491 -0.472324 0.788717
  outer loop
   vertex 0.0486271 0.0673946 -0.153291
   vertex 0.0451246 0.0710514 -0.152849
   vertex 0.0486741 0.0672075 -0.15338
  endloop
 endfacet
 facet normal -0.393491 -0.472324 0.788717
  outer loop
   vertex 0.0486741 0.0672075 -0.15338
   vertex 0.0451246 0.0710514 -0.152849
   vertex 0.04874 0.066883 -0.153541
  endloop
 endfacet
 facet normal -0.393491 -0.472324 0.788717
  outer loop
   vertex 0.04874 0.066883 -0.153541
   vertex 0.0451246 0.0710514 -0.152849
   vertex 0.0487767 0.0666575 -0.153658
  endloop
 endfacet
 facet normal -0.393491 -0.472324 0.788717
  outer loop
   vertex 0.0487767 0.0666575 -0.153658
   vertex 0.0451246 0.0710514 -0.152849
   vertex 0.0487898 0.0664909 -0.153751
  endloop
 endfacet
 facet normal -0.393491 -0.472324 0.788717
  outer loop
   vertex 0.0487898 0.0664909 -0.153751
   vertex 0.0451246 0.0710514 -0.152849
   vertex 0.0488104 0.0658537 -0.154122
  endloop
 endfacet
 facet normal -0.393491 -0.472324 0.788717
  outer loop
   vertex 0.0463492 0.0630035 -0.157057
   vertex 0.0465065 0.0630353 -0.15696
   vertex 0.0418231 0.0645439 -0.158393
  endloop
 endfacet
 facet normal -0.393491 -0.472324 0.788717
  outer loop
   vertex 0.0465065 0.0630353 -0.15696
   vertex 0.047532 0.0634376 -0.156207
   vertex 0.0418231 0.0645439 -0.158393
  endloop
 endfacet
 facet normal -0.393491 -0.472324 0.788717
  outer loop
   vertex 0.0487182 0.0651392 -0.154596
   vertex 0.0487512 0.0652757 -0.154498
   vertex 0.0481783 0.0640027 -0.155546
  endloop
 endfacet
 facet normal -0.393491 -0.472324 0.788717
  outer loop
   vertex 0.0488088 0.0657461 -0.154188
   vertex 0.0488104 0.0658537 -0.154122
   vertex 0.0487565 0.0653092 -0.154475
  endloop
 endfacet
 facet normal -0.393491 -0.472324 0.788717
  outer loop
   vertex 0.0488104 0.0658537 -0.154122
   vertex 0.0451246 0.0710514 -0.152849
   vertex 0.0487565 0.0653092 -0.154475
  endloop
 endfacet
 facet normal -0.393491 -0.472324 0.788717
  outer loop
   vertex 0.0403744 0.0669877 -0.157652
   vertex 0.0404497 0.0667919 -0.157732
   vertex 0.0403524 0.0670591 -0.15762
  endloop
 endfacet
 facet normal -0.393491 -0.472324 0.788717
  outer loop
   vertex 0.0403524 0.0670591 -0.15762
   vertex 0.0404497 0.0667919 -0.157732
   vertex 0.0402553 0.0674646 -0.157426
  endloop
 endfacet
 facet normal -0.393491 -0.472324 0.788717
  outer loop
   vertex 0.0404497 0.0667919 -0.157732
   vertex 0.0417339 0.0646368 -0.158382
   vertex 0.0402553 0.0674646 -0.157426
  endloop
 endfacet
 facet normal -0.393491 -0.472324 0.788717
  outer loop
   vertex 0.044506 0.0712726 -0.153025
   vertex 0.0444421 0.0712898 -0.153046
   vertex 0.0447786 0.0711753 -0.152947
  endloop
 endfacet
 facet normal -0.393491 -0.472324 0.788717
  outer loop
   vertex 0.0444421 0.0712898 -0.153046
   vertex 0.0409361 0.0706039 -0.155206
   vertex 0.0447786 0.0711753 -0.152947
  endloop
 endfacet
 facet normal -0.393491 -0.472324 0.788717
  outer loop
   vertex 0.0447786 0.0711753 -0.152947
   vertex 0.0409361 0.0706039 -0.155206
   vertex 0.0450647 0.0710762 -0.152864
  endloop
 endfacet
 facet normal -0.393491 -0.472324 0.788717
  outer loop
   vertex 0.0418231 0.0645439 -0.158393
   vertex 0.047532 0.0634376 -0.156207
   vertex 0.0417339 0.0646368 -0.158382
  endloop
 endfacet
 facet normal -0.393491 -0.472324 0.788717
  outer loop
   vertex 0.0417339 0.0646368 -0.158382
   vertex 0.047532 0.0634376 -0.156207
   vertex 0.0402553 0.0674646 -0.157426
  endloop
 endfacet
 facet normal -0.393491 -0.472324 0.788717
  outer loop
   vertex 0.0402553 0.0674646 -0.157426
   vertex 0.047532 0.0634376 -0.156207
   vertex 0.0402161 0.0676209 -0.157352
  endloop
 endfacet
 facet normal -0.393491 -0.472324 0.788717
  outer loop
   vertex 0.0406604 0.0702078 -0.155581
   vertex 0.0405985 0.070096 -0.155679
   vertex 0.0409162 0.0705783 -0.155232
  endloop
 endfacet
 facet normal -0.393491 -0.472324 0.788717
  outer loop
   vertex 0.0405985 0.070096 -0.155679
   vertex 0.0404332 0.0697274 -0.155982
   vertex 0.0409162 0.0705783 -0.155232
  endloop
 endfacet
 facet normal -0.393491 -0.472324 0.788717
  outer loop
   vertex 0.0401726 0.0687592 -0.156692
   vertex 0.0401661 0.068692 -0.156735
   vertex 0.040259 0.0691832 -0.156395
  endloop
 endfacet
 facet normal -0.393491 -0.472324 0.788717
  outer loop
   vertex 0.0401661 0.068692 -0.156735
   vertex 0.0401518 0.0682267 -0.157021
   vertex 0.040259 0.0691832 -0.156395
  endloop
 endfacet
 facet normal -0.393492 -0.472324 0.788717
  outer loop
   vertex 0.040397 0.0696373 -0.156054
   vertex 0.0402772 0.0692611 -0.156339
   vertex 0.0404332 0.0697274 -0.155982
  endloop
 endfacet
 facet normal -0.393491 -0.472324 0.788717
  outer loop
   vertex 0.0404332 0.0697274 -0.155982
   vertex 0.0402772 0.0692611 -0.156339
   vertex 0.0409162 0.0705783 -0.155232
  endloop
 endfacet
 facet normal -0.393491 -0.472324 0.788717
  outer loop
   vertex 0.0476685 0.063538 -0.156079
   vertex 0.0481685 0.0639905 -0.155558
   vertex 0.047573 0.0634656 -0.15617
  endloop
 endfacet
 facet normal -0.393491 -0.472324 0.788717
  outer loop
   vertex 0.0402772 0.0692611 -0.156339
   vertex 0.040259 0.0691832 -0.156395
   vertex 0.0409162 0.0705783 -0.155232
  endloop
 endfacet
 facet normal -0.393491 -0.472324 0.788717
  outer loop
   vertex 0.040259 0.0691832 -0.156395
   vertex 0.0401518 0.0682267 -0.157021
   vertex 0.0409162 0.0705783 -0.155232
  endloop
 endfacet
 facet normal -0.393491 -0.472324 0.788717
  outer loop
   vertex 0.0401518 0.0682267 -0.157021
   vertex 0.0401549 0.0681615 -0.157059
   vertex 0.0409162 0.0705783 -0.155232
  endloop
 endfacet
 facet normal -0.393491 -0.472324 0.788717
  outer loop
   vertex 0.0401549 0.0681615 -0.157059
   vertex 0.0402105 0.0676541 -0.157335
   vertex 0.0409162 0.0705783 -0.155232
  endloop
 endfacet
 facet normal -0.393491 -0.472324 0.788717
  outer loop
   vertex 0.0450647 0.0710762 -0.152864
   vertex 0.0409361 0.0706039 -0.155206
   vertex 0.0451246 0.0710514 -0.152849
  endloop
 endfacet
 facet normal -0.393491 -0.472324 0.788717
  outer loop
   vertex 0.0451246 0.0710514 -0.152849
   vertex 0.0409361 0.0706039 -0.155206
   vertex 0.0487565 0.0653092 -0.154475
  endloop
 endfacet
 facet normal -0.393491 -0.472324 0.788717
  outer loop
   vertex 0.047532 0.0634376 -0.156207
   vertex 0.047573 0.0634656 -0.15617
   vertex 0.0402161 0.0676209 -0.157352
  endloop
 endfacet
 facet normal -0.393491 -0.472324 0.788717
  outer loop
   vertex 0.047573 0.0634656 -0.15617
   vertex 0.0481685 0.0639905 -0.155558
   vertex 0.0402161 0.0676209 -0.157352
  endloop
 endfacet
 facet normal -0.393491 -0.472324 0.788717
  outer loop
   vertex 0.0487512 0.0652757 -0.154498
   vertex 0.0487565 0.0653092 -0.154475
   vertex 0.0481783 0.0640027 -0.155546
  endloop
 endfacet
 facet normal -0.393491 -0.472324 0.788717
  outer loop
   vertex 0.0487565 0.0653092 -0.154475
   vertex 0.0409361 0.0706039 -0.155206
   vertex 0.0481783 0.0640027 -0.155546
  endloop
 endfacet
 facet normal -0.393491 -0.472324 0.788717
  outer loop
   vertex 0.0409361 0.0706039 -0.155206
   vertex 0.0409162 0.0705783 -0.155232
   vertex 0.0481783 0.0640027 -0.155546
  endloop
 endfacet
 facet normal -0.393491 -0.472324 0.788717
  outer loop
   vertex 0.0409162 0.0705783 -0.155232
   vertex 0.0402105 0.0676541 -0.157335
   vertex 0.0481783 0.0640027 -0.155546
  endloop
 endfacet
 facet normal -0.393491 -0.472324 0.788717
  outer loop
   vertex 0.0402105 0.0676541 -0.157335
   vertex 0.0402161 0.0676209 -0.157352
   vertex 0.0481783 0.0640027 -0.155546
  endloop
 endfacet
 facet normal -0.393491 -0.472324 0.788717
  outer loop
   vertex 0.0481685 0.0639905 -0.155558
   vertex 0.0481783 0.0640027 -0.155546
   vertex 0.0402161 0.0676209 -0.157352
  endloop
 endfacet
endsolid
