solid Visualization Toolkit generated SLA File
 facet normal -5.77148e-08 -1.36544e-07 -1
  outer loop
   vertex -0.00468082 -0.00948599 7.58188e-10
   vertex -0.00506328 -0.00928886 7.53344e-10
   vertex -0.0044008 -0.00958783 7.55932e-10
  endloop
 endfacet
 facet normal -6.82539e-08 -9.17071e-08 -1
  outer loop
   vertex 0.0100455 0.00427731 -5.61258e-10
   vertex 0.0102245 0.00397984 -5.4619e-10
   vertex 0.00976682 0.00463215 -5.74777e-10
  endloop
 endfacet
 facet normal -2.15275e-07 -4.44707e-08 -1
  outer loop
   vertex 0.0109229 -0.000822453 -2.49035e-10
   vertex 0.0109169 -0.000849561 -2.46524e-10
   vertex 0.0109245 -0.000805764 -2.50117e-10
  endloop
 endfacet
 facet normal 1.2058e-07 7.82418e-08 -1
  outer loop
   vertex 0.00971065 0.00470315 -5.75996e-10
   vertex 0.00976682 0.00463215 -5.74777e-10
   vertex 0.00958873 0.0048251 -5.81155e-10
  endloop
 endfacet
 facet normal -9.37366e-08 -2.81285e-07 -1
  outer loop
   vertex -0.00418081 -0.00967243 7.59108e-10
   vertex -0.0044008 -0.00958783 7.55932e-10
   vertex -0.00362978 -0.00981043 7.46275e-10
  endloop
 endfacet
 facet normal -4.17051e-08 -1.01068e-07 -1
  outer loop
   vertex -0.0044008 -0.00958783 7.55932e-10
   vertex -0.00506328 -0.00928886 7.53344e-10
   vertex -0.00362978 -0.00981043 7.46275e-10
  endloop
 endfacet
 facet normal -4.86066e-08 -7.79234e-08 -1
  outer loop
   vertex 0.00976682 0.00463215 -5.74777e-10
   vertex 0.0102245 0.00397984 -5.4619e-10
   vertex 0.00958873 0.0048251 -5.81155e-10
  endloop
 endfacet
 facet normal -8.11582e-08 -1.2403e-07 -1
  outer loop
   vertex -0.0057388 -0.00886325 7.4269e-10
   vertex -0.00585967 -0.00876551 7.40377e-10
   vertex -0.00567561 -0.00890445 7.42672e-10
  endloop
 endfacet
 facet normal -1.37316e-07 -4.39034e-08 -1
  outer loop
   vertex 0.010812 -0.00137671 -2.08975e-10
   vertex 0.0107349 -0.00162738 -1.87383e-10
   vertex 0.0109169 -0.000849561 -2.46524e-10
  endloop
 endfacet
 facet normal 1.99313e-08 -6.32143e-08 -1
  outer loop
   vertex 0.0109135 0.00214521 -4.44744e-10
   vertex 0.0109502 0.00178006 -4.2093e-10
   vertex 0.010886 0.00227027 -4.53198e-10
  endloop
 endfacet
 facet normal -2.30952e-07 -9.60632e-08 -1
  outer loop
   vertex 0.010886 0.00227027 -4.53198e-10
   vertex 0.0109502 0.00178006 -4.2093e-10
   vertex 0.010781 0.0027083 -4.7104e-10
  endloop
 endfacet
 facet normal 9.96635e-08 -9.69121e-08 -1
  outer loop
   vertex -0.00980057 0.00396783 1.03062e-11
   vertex -0.00968035 0.00430524 -1.04117e-11
   vertex -0.00990885 0.00354852 4.01503e-11
  endloop
 endfacet
 facet normal 1.75409e-07 1.67717e-07 -1
  outer loop
   vertex -0.00623471 -0.00846509 7.24978e-10
   vertex -0.00643569 -0.00827054 7.22355e-10
   vertex -0.00585967 -0.00876551 7.40377e-10
  endloop
 endfacet
 facet normal -2.61329e-09 -3.98449e-08 -1
  outer loop
   vertex 0.0089954 0.0054049 -6.01626e-10
   vertex 0.00923897 0.00517342 -5.93039e-10
   vertex 0.00863183 0.00569349 -6.12174e-10
  endloop
 endfacet
 facet normal 3.35438e-08 -1.61372e-08 -1
  outer loop
   vertex 0.00958873 0.0048251 -5.81155e-10
   vertex 0.0102245 0.00397984 -5.4619e-10
   vertex 0.00936288 0.00506021 -5.92525e-10
  endloop
 endfacet
 facet normal -3.00285e-08 -5.5368e-08 -1
  outer loop
   vertex -0.00878079 0.0060829 -1.61715e-10
   vertex -0.00849609 0.00644861 -1.90512e-10
   vertex -0.00895535 0.0058125 -1.41502e-10
  endloop
 endfacet
 facet normal 1.48649e-07 -1.10593e-07 -1
  outer loop
   vertex -0.00995457 0.00339084 5.07929e-11
   vertex -0.00990885 0.00354852 4.01503e-11
   vertex -0.009995 0.00318888 6.71188e-11
  endloop
 endfacet
 facet normal 6.64257e-08 -2.23365e-07 -1
  outer loop
   vertex -0.00719828 0.00766236 -3.06016e-10
   vertex -0.0068881 0.00784706 -3.26667e-10
   vertex -0.00741778 0.00750523 -2.85497e-10
  endloop
 endfacet
 facet normal -1.13343e-07 5.51863e-08 -1
  outer loop
   vertex -0.00741778 0.00750523 -2.85497e-10
   vertex -0.0068881 0.00784706 -3.26667e-10
   vertex -0.00765243 0.0073149 -2.69404e-10
  endloop
 endfacet
 facet normal -1.01393e-07 3.80226e-08 -1
  outer loop
   vertex -0.00765243 0.0073149 -2.69404e-10
   vertex -0.0068881 0.00784706 -3.26667e-10
   vertex -0.00791771 0.00707955 -2.51455e-10
  endloop
 endfacet
 facet normal 3.34459e-07 6.26029e-07 -1
  outer loop
   vertex 0.00717316 0.00660311 -6.30387e-10
   vertex 0.00726507 0.00655133 -6.32059e-10
   vertex 0.00712045 0.00662682 -6.33168e-10
  endloop
 endfacet
 facet normal -9.56869e-08 8.18522e-10 -1
  outer loop
   vertex -0.00846998 0.00648252 -1.92983e-10
   vertex -0.00843735 0.0065184 -1.96076e-10
   vertex -0.00849609 0.00644861 -1.90512e-10
  endloop
 endfacet
 facet normal 5.64409e-08 -2.4631e-07 -1
  outer loop
   vertex -0.00668995 0.00795858 -3.42951e-10
   vertex -0.00630574 0.0081318 -3.63931e-10
   vertex -0.0068881 0.00784706 -3.26667e-10
  endloop
 endfacet
 facet normal -4.67148e-08 -3.53277e-08 -1
  outer loop
   vertex -0.0068881 0.00784706 -3.26667e-10
   vertex -0.00630574 0.0081318 -3.63931e-10
   vertex -0.00791771 0.00707955 -2.51455e-10
  endloop
 endfacet
 facet normal -1.18796e-09 -1.05072e-07 -1
  outer loop
   vertex -0.00791771 0.00707955 -2.51455e-10
   vertex -0.00630574 0.0081318 -3.63931e-10
   vertex -0.00810227 0.00689736 -2.32092e-10
  endloop
 endfacet
 facet normal -2.05888e-08 -7.68368e-08 -1
  outer loop
   vertex -0.00810227 0.00689736 -2.32092e-10
   vertex -0.00630574 0.0081318 -3.63931e-10
   vertex -0.00843735 0.0065184 -1.96076e-10
  endloop
 endfacet
 facet normal 3.19922e-08 -1.07083e-07 -1
  outer loop
   vertex -0.00906521 0.00564403 -1.26975e-10
   vertex -0.00895535 0.0058125 -1.41502e-10
   vertex -0.00929536 0.00520077 -8.68726e-11
  endloop
 endfacet
 facet normal 7.37348e-08 -1.30285e-07 -1
  outer loop
   vertex -0.00895535 0.0058125 -1.41502e-10
   vertex -0.00849609 0.00644861 -1.90512e-10
   vertex -0.00929536 0.00520077 -8.68726e-11
  endloop
 endfacet
 facet normal -9.46371e-08 -2.67295e-07 -1
  outer loop
   vertex -0.00357694 -0.00982525 7.45235e-10
   vertex -0.00362978 -0.00981043 7.46275e-10
   vertex -0.00355699 -0.00982872 7.44276e-10
  endloop
 endfacet
 facet normal 1.62368e-09 1.15773e-07 -1
  outer loop
   vertex -0.00355699 -0.00982872 7.44276e-10
   vertex -0.00362978 -0.00981043 7.46275e-10
   vertex -0.00334362 -0.00985859 7.41164e-10
  endloop
 endfacet
 facet normal -2.89896e-08 -6.6121e-08 -1
  outer loop
   vertex -0.00362978 -0.00981043 7.46275e-10
   vertex -0.00506328 -0.00928886 7.53344e-10
   vertex -0.00334362 -0.00985859 7.41164e-10
  endloop
 endfacet
 facet normal -2.75618e-08 -6.18114e-08 -1
  outer loop
   vertex -0.00334362 -0.00985859 7.41164e-10
   vertex -0.00506328 -0.00928886 7.53344e-10
   vertex -0.00286482 -0.00992759 7.32232e-10
  endloop
 endfacet
 facet normal 7.43346e-08 -1.99015e-08 -1
  outer loop
   vertex 0.0103492 0.00376817 -5.32702e-10
   vertex 0.0105213 0.00341059 -5.12793e-10
   vertex 0.0102245 0.00397984 -5.4619e-10
  endloop
 endfacet
 facet normal -5.71975e-08 -8.85015e-08 -1
  outer loop
   vertex 0.0102245 0.00397984 -5.4619e-10
   vertex 0.0105213 0.00341059 -5.12793e-10
   vertex 0.00936288 0.00506021 -5.92525e-10
  endloop
 endfacet
 facet normal 9.56559e-08 -3.65555e-08 -1
  outer loop
   vertex 0.010781 0.0027083 -4.7104e-10
   vertex 0.0109502 0.00178006 -4.2093e-10
   vertex 0.0107128 0.00293003 -4.85677e-10
  endloop
 endfacet
 facet normal 4.6969e-08 -4.66064e-08 -1
  outer loop
   vertex 0.0107128 0.00293003 -4.85677e-10
   vertex 0.0109502 0.00178006 -4.2093e-10
   vertex 0.0105615 0.00332115 -5.11007e-10
  endloop
 endfacet
 facet normal -9.45382e-08 -8.68297e-08 -1
  outer loop
   vertex -0.00950457 -0.00379828 5.12339e-10
   vertex -0.0095362 -0.00367021 5.04209e-10
   vertex -0.00939266 -0.00411973 5.29671e-10
  endloop
 endfacet
 facet normal 1.75839e-07 -2.12628e-07 -1
  outer loop
   vertex 0.00949099 -0.00422133 1.944e-11
   vertex 0.00924214 -0.00454018 4.34812e-11
   vertex 0.00979048 -0.00377179 -2.348e-11
  endloop
 endfacet
 facet normal -2.42141e-07 1.58539e-08 -1
  outer loop
   vertex -0.00960127 0.00453206 -2.5964e-11
   vertex -0.00939113 0.00500249 -6.93898e-11
   vertex -0.00968035 0.00430524 -1.04117e-11
  endloop
 endfacet
 facet normal -1.57479e-07 -1.92642e-08 -1
  outer loop
   vertex -0.00968035 0.00430524 -1.04117e-11
   vertex -0.00939113 0.00500249 -6.93898e-11
   vertex -0.00990885 0.00354852 4.01503e-11
  endloop
 endfacet
 facet normal -6.07815e-07 -1.74599e-07 -1
  outer loop
   vertex -0.0100548 -0.0017797 3.98148e-10
   vertex -0.0100686 -0.00169111 3.91065e-10
   vertex -0.0100333 -0.00187265 4.01274e-10
  endloop
 endfacet
 facet normal 2.1942e-07 -4.40893e-09 -1
  outer loop
   vertex -0.0099617 -0.00221766 4.18502e-10
   vertex -0.0100333 -0.00187265 4.01274e-10
   vertex -0.00983076 -0.00268068 4.49276e-10
  endloop
 endfacet
 facet normal -1.08264e-07 2.64111e-07 -1
  outer loop
   vertex -0.000173955 -0.00974037 6.39244e-10
   vertex -0.000670983 -0.00984456 6.65535e-10
   vertex 1.14056e-05 -0.00968438 6.33963e-10
  endloop
 endfacet
 facet normal -1.9561e-07 -2.94685e-07 -1
  outer loop
   vertex 0.00859047 0.00572648 -6.13807e-10
   vertex 0.00863183 0.00569349 -6.12174e-10
   vertex 0.00851525 0.00577788 -6.14237e-10
  endloop
 endfacet
 facet normal 2.33236e-07 -1.16816e-07 -1
  outer loop
   vertex -0.0100693 0.00281148 9.38778e-11
   vertex -0.009995 0.00318888 6.71188e-11
   vertex -0.0101136 0.00246108 1.24465e-10
  endloop
 endfacet
 facet normal -6.58166e-07 2.97543e-07 -1
  outer loop
   vertex 0.00983647 -0.00370014 -3.24271e-11
   vertex 0.00979048 -0.00377179 -2.348e-11
   vertex 0.00991087 -0.00356278 -4.05229e-11
  endloop
 endfacet
 facet normal 3.9321e-07 -2.87675e-07 -1
  outer loop
   vertex 0.010117 -0.00319143 -6.62815e-11
   vertex 0.00991087 -0.00356278 -4.05229e-11
   vertex 0.0102105 -0.00298855 -8.78799e-11
  endloop
 endfacet
 facet normal -3.02696e-09 -7.4261e-08 -1
  outer loop
   vertex -0.00990885 0.00354852 4.01503e-11
   vertex -0.00939113 0.00500249 -6.93898e-11
   vertex -0.009995 0.00318888 6.71188e-11
  endloop
 endfacet
 facet normal 2.07435e-08 -8.21758e-08 -1
  outer loop
   vertex -0.009995 0.00318888 6.71188e-11
   vertex -0.00939113 0.00500249 -6.93898e-11
   vertex -0.0101136 0.00246108 1.24465e-10
  endloop
 endfacet
 facet normal -3.69949e-07 -1.77551e-08 -1
  outer loop
   vertex -0.0101517 0.00221219 1.42947e-10
   vertex -0.0101136 0.00246108 1.24465e-10
   vertex -0.0101752 0.00193763 1.56543e-10
  endloop
 endfacet
 facet normal -8.99886e-08 -5.06949e-08 -1
  outer loop
   vertex -0.0101136 0.00246108 1.24465e-10
   vertex -0.00939113 0.00500249 -6.93898e-11
   vertex -0.0101752 0.00193763 1.56543e-10
  endloop
 endfacet
 facet normal -1.81857e-07 -6.36626e-07 -1
  outer loop
   vertex 0.00308985 0.00808626 -6.21675e-10
   vertex 0.00345492 0.00798032 -6.20622e-10
   vertex 0.0029424 0.00811657 -6.14155e-10
  endloop
 endfacet
 facet normal -3.30292e-07 6.27546e-08 -1
  outer loop
   vertex 0.0103525 -0.00267944 -1.15361e-10
   vertex 0.0102105 -0.00298855 -8.78799e-11
   vertex 0.0104818 -0.00234179 -1.36872e-10
  endloop
 endfacet
 facet normal -6.55271e-08 -4.82725e-08 -1
  outer loop
   vertex 0.0102105 -0.00298855 -8.78799e-11
   vertex 0.00991087 -0.00356278 -4.05229e-11
   vertex 0.0104818 -0.00234179 -1.36872e-10
  endloop
 endfacet
 facet normal -2.06932e-08 -7.66989e-08 -1
  outer loop
   vertex -0.00630574 0.0081318 -3.63931e-10
   vertex -0.00611898 0.00821062 -3.73841e-10
   vertex -0.00843735 0.0065184 -1.96076e-10
  endloop
 endfacet
 facet normal -2.39188e-08 -7.22797e-08 -1
  outer loop
   vertex -0.00611898 0.00821062 -3.73841e-10
   vertex -0.00569693 0.00836475 -3.95077e-10
   vertex -0.00843735 0.0065184 -1.96076e-10
  endloop
 endfacet
 facet normal 6.25518e-08 -2.09814e-07 -1
  outer loop
   vertex 0.00575298 -0.00746589 3.32519e-10
   vertex 0.00544253 -0.00762418 3.4631e-10
   vertex 0.00611025 -0.00725397 3.10401e-10
  endloop
 endfacet
 facet normal -4.07126e-08 -5.80913e-08 -1
  outer loop
   vertex 0.00979048 -0.00377179 -2.348e-11
   vertex 0.00924214 -0.00454018 4.34812e-11
   vertex 0.00991087 -0.00356278 -4.05229e-11
  endloop
 endfacet
 facet normal -3.24793e-08 -6.37245e-08 -1
  outer loop
   vertex 0.00991087 -0.00356278 -4.05229e-11
   vertex 0.00924214 -0.00454018 4.34812e-11
   vertex 0.0104818 -0.00234179 -1.36872e-10
  endloop
 endfacet
 facet normal 6.28353e-08 -1.1747e-07 -1
  outer loop
   vertex 0.00924214 -0.00454018 4.34812e-11
   vertex 0.00907783 -0.00473571 5.61256e-11
   vertex 0.0104818 -0.00234179 -1.36872e-10
  endloop
 endfacet
 facet normal -3.4132e-08 -6.0603e-08 -1
  outer loop
   vertex 0.00907783 -0.00473571 5.61256e-11
   vertex 0.00876255 -0.00509422 8.86137e-11
   vertex 0.0104818 -0.00234179 -1.36872e-10
  endloop
 endfacet
 facet normal -1.11651e-07 -1.26742e-07 -1
  outer loop
   vertex 0.00936288 0.00506021 -5.92525e-10
   vertex 0.0105213 0.00341059 -5.12793e-10
   vertex 0.00923897 0.00517342 -5.93039e-10
  endloop
 endfacet
 facet normal -1.98361e-08 -5.99512e-08 -1
  outer loop
   vertex 0.00923897 0.00517342 -5.93039e-10
   vertex 0.0105213 0.00341059 -5.12793e-10
   vertex 0.00863183 0.00569349 -6.12174e-10
  endloop
 endfacet
 facet normal -1.11496e-08 -7.34254e-08 -1
  outer loop
   vertex 0.0107349 -0.00162738 -1.87383e-10
   vertex 0.010641 -0.00192527 -1.64464e-10
   vertex 0.0109169 -0.000849561 -2.46524e-10
  endloop
 endfacet
 facet normal 4.82122e-08 -8.86486e-08 -1
  outer loop
   vertex 0.010641 -0.00192527 -1.64464e-10
   vertex 0.0105092 -0.00227369 -1.3993e-10
   vertex 0.0109169 -0.000849561 -2.46524e-10
  endloop
 endfacet
 facet normal -3.37703e-07 -3.05844e-07 -1
  outer loop
   vertex -0.00781813 -0.00683515 6.71764e-10
   vertex -0.00812448 -0.00642719 6.50445e-10
   vertex -0.00759836 -0.00709222 6.76168e-10
  endloop
 endfacet
 facet normal 1.52828e-08 -1.30464e-07 -1
  outer loop
   vertex -0.00569693 0.00836475 -3.95077e-10
   vertex -0.00551537 0.00842318 -3.99925e-10
   vertex -0.00843735 0.0065184 -1.96076e-10
  endloop
 endfacet
 facet normal -2.8311e-08 -6.35902e-08 -1
  outer loop
   vertex -0.00551537 0.00842318 -3.99925e-10
   vertex -0.00510455 0.00853634 -4.18752e-10
   vertex -0.00843735 0.0065184 -1.96076e-10
  endloop
 endfacet
 facet normal -3.44547e-08 -5.34432e-08 -1
  outer loop
   vertex -0.00510455 0.00853634 -4.18752e-10
   vertex -0.00490232 0.00858217 -4.28169e-10
   vertex -0.00843735 0.0065184 -1.96076e-10
  endloop
 endfacet
 facet normal -9.02344e-09 -9.70043e-08 -1
  outer loop
   vertex -0.00490232 0.00858217 -4.28169e-10
   vertex -0.0044927 0.00866044 -4.39457e-10
   vertex -0.00843735 0.0065184 -1.96076e-10
  endloop
 endfacet
 facet normal -1.10676e-08 -9.32398e-08 -1
  outer loop
   vertex -0.0044927 0.00866044 -4.39457e-10
   vertex -0.00420407 0.00870982 -4.47256e-10
   vertex -0.00843735 0.0065184 -1.96076e-10
  endloop
 endfacet
 facet normal -4.46364e-08 -2.83935e-08 -1
  outer loop
   vertex -0.00420407 0.00870982 -4.47256e-10
   vertex -0.00387091 0.0087503 -4.63276e-10
   vertex -0.00843735 0.0065184 -1.96076e-10
  endloop
 endfacet
 facet normal -3.09681e-08 -5.63586e-08 -1
  outer loop
   vertex -0.00387091 0.0087503 -4.63276e-10
   vertex -0.00357048 0.00878295 -4.7442e-10
   vertex -0.00843735 0.0065184 -1.96076e-10
  endloop
 endfacet
 facet normal -4.7864e-08 -2.00468e-08 -1
  outer loop
   vertex -0.00357048 0.00878295 -4.7442e-10
   vertex -0.00326098 0.00880996 -4.89776e-10
   vertex -0.00843735 0.0065184 -1.96076e-10
  endloop
 endfacet
 facet normal -3.18241e-08 -5.62792e-08 -1
  outer loop
   vertex -0.00326098 0.00880996 -4.89776e-10
   vertex -0.00292804 0.00883185 -5.01603e-10
   vertex -0.00843735 0.0065184 -1.96076e-10
  endloop
 endfacet
 facet normal -1.14884e-06 -1.92208e-07 -1
  outer loop
   vertex -0.0101896 -0.00080724 3.37412e-10
   vertex -0.0101943 -0.000742949 3.30397e-10
   vertex -0.0101801 -0.000881067 3.40615e-10
  endloop
 endfacet
 facet normal 9.3817e-09 -1.54408e-07 -1
  outer loop
   vertex -0.00292804 0.00883185 -5.01603e-10
   vertex -0.00266472 0.0088436 -5.00947e-10
   vertex -0.00843735 0.0065184 -1.96076e-10
  endloop
 endfacet
 facet normal -2.9097e-08 -5.88788e-08 -1
  outer loop
   vertex -0.00266472 0.0088436 -5.00947e-10
   vertex -0.00226394 0.00885044 -5.13011e-10
   vertex -0.00843735 0.0065184 -1.96076e-10
  endloop
 endfacet
 facet normal -2.76034e-08 -5.30814e-08 -1
  outer loop
   vertex -0.00567561 -0.00890445 7.42672e-10
   vertex -0.00585967 -0.00876551 7.40377e-10
   vertex -0.0051677 -0.00923471 7.46182e-10
  endloop
 endfacet
 facet normal -7.72746e-08 -1.26336e-07 -1
  outer loop
   vertex -0.00585967 -0.00876551 7.40377e-10
   vertex -0.00643569 -0.00827054 7.22355e-10
   vertex -0.0051677 -0.00923471 7.46182e-10
  endloop
 endfacet
 facet normal -7.08575e-08 -1.96883e-07 -1
  outer loop
   vertex 0.00510677 0.00747791 -6.38365e-10
   vertex 0.0055576 0.00731563 -6.38361e-10
   vertex 0.00494491 0.00752351 -6.35874e-10
  endloop
 endfacet
 facet normal -2.36395e-07 -9.47946e-08 -1
  outer loop
   vertex -0.0101234 -0.00137373 3.7393e-10
   vertex -0.0101801 -0.000881067 3.40615e-10
   vertex -0.0100686 -0.00169111 3.91065e-10
  endloop
 endfacet
 facet normal -9.89719e-08 -4.83966e-08 -1
  outer loop
   vertex -0.0101752 0.00193763 1.56543e-10
   vertex -0.00939113 0.00500249 -6.93898e-11
   vertex -0.0102072 0.00160454 1.75831e-10
  endloop
 endfacet
 facet normal -3.15638e-08 -6.64094e-08 -1
  outer loop
   vertex 0.0109502 0.00178006 -4.2093e-10
   vertex 0.0109774 0.0015597 -4.07156e-10
   vertex 0.0105615 0.00332115 -5.11007e-10
  endloop
 endfacet
 facet normal -3.03886e-07 -2.7909e-07 -1
  outer loop
   vertex -0.00759836 -0.00709222 6.76168e-10
   vertex -0.00812448 -0.00642719 6.50445e-10
   vertex -0.00741107 -0.00729787 6.76651e-10
  endloop
 endfacet
 facet normal 2.17968e-07 1.48495e-07 -1
  outer loop
   vertex -0.00741107 -0.00729787 6.76651e-10
   vertex -0.00812448 -0.00642719 6.50445e-10
   vertex -0.00704999 -0.00767896 6.98767e-10
  endloop
 endfacet
 facet normal 3.07383e-08 -2.47467e-07 -1
  outer loop
   vertex 0.000377207 -0.00958592 6.20842e-10
   vertex 1.14056e-05 -0.00968438 6.33963e-10
   vertex 0.000955695 -0.00939583 5.91583e-10
  endloop
 endfacet
 facet normal -5.08599e-08 1.95677e-08 -1
  outer loop
   vertex 1.14056e-05 -0.00968438 6.33963e-10
   vertex -0.000670983 -0.00984456 6.65535e-10
   vertex 0.000955695 -0.00939583 5.91583e-10
  endloop
 endfacet
 facet normal -2.56964e-07 -5.6399e-08 -1
  outer loop
   vertex 0.0110197 0.000348808 -3.30742e-10
   vertex 0.010999 -5.39227e-05 -3.02704e-10
   vertex 0.0110196 0.000700528 -3.50544e-10
  endloop
 endfacet
 facet normal -4.2162e-08 -7.3486e-09 -1
  outer loop
   vertex -0.00136024 -0.00994446 6.95755e-10
   vertex -0.00155853 -0.00995766 7.04213e-10
   vertex -0.000759992 -0.00986252 6.69846e-10
  endloop
 endfacet
 facet normal -1.65839e-08 -2.22042e-07 -1
  outer loop
   vertex -0.00155853 -0.00995766 7.04213e-10
   vertex -0.00215649 -0.0099674 7.16293e-10
   vertex -0.000759992 -0.00986252 6.69846e-10
  endloop
 endfacet
 facet normal -8.21468e-08 -1.53962e-07 -1
  outer loop
   vertex 0.00815342 0.00603101 -6.23486e-10
   vertex 0.00851525 0.00577788 -6.14237e-10
   vertex 0.00789949 0.00618937 -6.27008e-10
  endloop
 endfacet
 facet normal -3.04645e-07 -5.47916e-07 -1
  outer loop
   vertex 0.00768056 0.00632474 -6.34486e-10
   vertex 0.00789949 0.00618937 -6.27008e-10
   vertex 0.00726507 0.00655133 -6.32059e-10
  endloop
 endfacet
 facet normal -6.66416e-08 -1.3076e-07 -1
  outer loop
   vertex 0.00789949 0.00618937 -6.27008e-10
   vertex 0.00851525 0.00577788 -6.14237e-10
   vertex 0.00726507 0.00655133 -6.32059e-10
  endloop
 endfacet
 facet normal -9.43189e-08 -3.33234e-07 -1
  outer loop
   vertex 0.00252709 0.00821438 -6.07577e-10
   vertex 0.0029424 0.00811657 -6.14155e-10
   vertex 0.0023284 0.00824955 -6.00558e-10
  endloop
 endfacet
 facet normal -6.39009e-08 -5.68198e-08 -1
  outer loop
   vertex -0.0102072 0.00160454 1.75831e-10
   vertex -0.00939113 0.00500249 -6.93898e-11
   vertex -0.0102195 0.00134368 1.91436e-10
  endloop
 endfacet
 facet normal -6.76758e-09 -6.97549e-08 -1
  outer loop
   vertex -0.0102195 0.00134368 1.91436e-10
   vertex -0.00939113 0.00500249 -6.93898e-11
   vertex -0.0102362 0.00100283 2.15325e-10
  endloop
 endfacet
 facet normal -2.45847e-10 -7.11328e-08 -1
  outer loop
   vertex -0.0102362 0.00100283 2.15325e-10
   vertex -0.00939113 0.00500249 -6.93898e-11
   vertex -0.0102374 0.000483949 2.52235e-10
  endloop
 endfacet
 facet normal -1.36942e-07 4.38645e-07 -1
  outer loop
   vertex -0.000739259 -0.00985946 6.6835e-10
   vertex -0.000759992 -0.00986252 6.69846e-10
   vertex -0.000670983 -0.00984456 6.65535e-10
  endloop
 endfacet
 facet normal -2.75762e-07 -2.31433e-07 -1
  outer loop
   vertex -0.00857087 -0.0057908 6.24381e-10
   vertex -0.00873921 -0.00552288 6.08798e-10
   vertex -0.0083604 -0.00609253 6.36172e-10
  endloop
 endfacet
 facet normal 1.94486e-07 4.59957e-07 -1
  outer loop
   vertex 0.00562409 0.00729196 -6.36319e-10
   vertex 0.00578389 0.00722467 -6.36193e-10
   vertex 0.0055576 0.00731563 -6.38361e-10
  endloop
 endfacet
 facet normal -6.40431e-08 -1.93448e-07 -1
  outer loop
   vertex 0.0029424 0.00811657 -6.14155e-10
   vertex 0.00345492 0.00798032 -6.20622e-10
   vertex 0.0023284 0.00824955 -6.00558e-10
  endloop
 endfacet
 facet normal 2.25403e-07 -5.25682e-08 -1
  outer loop
   vertex -0.0102278 -0.000220232 2.95366e-10
   vertex -0.0102385 0.000329904 2.64037e-10
   vertex -0.0101943 -0.000742949 3.30397e-10
  endloop
 endfacet
 facet normal 1.13766e-07 -4.0735e-07 -1
  outer loop
   vertex 0.00418116 -0.00818962 4.264e-10
   vertex 0.00402839 -0.00824236 4.30502e-10
   vertex 0.0046165 -0.00801037 4.0291e-10
  endloop
 endfacet
 facet normal -3.44704e-08 -7.20637e-08 -1
  outer loop
   vertex 0.00863183 0.00569349 -6.12174e-10
   vertex 0.0105213 0.00341059 -5.12793e-10
   vertex 0.00851525 0.00577788 -6.14237e-10
  endloop
 endfacet
 facet normal -2.57628e-08 -6.46846e-08 -1
  outer loop
   vertex 0.00851525 0.00577788 -6.14237e-10
   vertex 0.0105213 0.00341059 -5.12793e-10
   vertex 0.00726507 0.00655133 -6.32059e-10
  endloop
 endfacet
 facet normal -7.78288e-08 -2.1743e-07 -1
  outer loop
   vertex 0.0055576 0.00731563 -6.38361e-10
   vertex 0.00578389 0.00722467 -6.36193e-10
   vertex 0.00494491 0.00752351 -6.35874e-10
  endloop
 endfacet
 facet normal 1.75314e-07 2.05843e-07 -1
  outer loop
   vertex -0.0051677 -0.00923471 7.46182e-10
   vertex -0.00643569 -0.00827054 7.22355e-10
   vertex -0.00506328 -0.00928886 7.53344e-10
  endloop
 endfacet
 facet normal -3.0315e-08 -7.12878e-08 -1
  outer loop
   vertex -0.00506328 -0.00928886 7.53344e-10
   vertex -0.00643569 -0.00827054 7.22355e-10
   vertex -0.00286482 -0.00992759 7.32232e-10
  endloop
 endfacet
 facet normal -2.83452e-08 -6.7043e-08 -1
  outer loop
   vertex -0.00643569 -0.00827054 7.22355e-10
   vertex -0.0066382 -0.00808713 7.158e-10
   vertex -0.00286482 -0.00992759 7.32232e-10
  endloop
 endfacet
 facet normal -2.75773e-08 -6.54687e-08 -1
  outer loop
   vertex -0.0066382 -0.00808713 7.158e-10
   vertex -0.00696544 -0.0077634 7.0363e-10
   vertex -0.00286482 -0.00992759 7.32232e-10
  endloop
 endfacet
 facet normal -1.04752e-07 -5.19719e-07 -1
  outer loop
   vertex -0.000779753 0.00876513 -5.55374e-10
   vertex -0.00073223 0.00875807 -5.56684e-10
   vertex -0.000807377 0.00876791 -5.53928e-10
  endloop
 endfacet
 facet normal 8.90932e-07 -2.07441e-08 -1
  outer loop
   vertex 0.0110141 0.000980862 -3.6122e-10
   vertex 0.0110196 0.000700528 -3.50544e-10
   vertex 0.0109831 0.00147493 -3.99097e-10
  endloop
 endfacet
 facet normal -9.59701e-09 -6.31488e-08 -1
  outer loop
   vertex 0.0110196 0.000700528 -3.50544e-10
   vertex 0.010999 -5.39227e-05 -3.02704e-10
   vertex 0.0109831 0.00147493 -3.99097e-10
  endloop
 endfacet
 facet normal 1.17691e-07 5.4164e-09 -1
  outer loop
   vertex -0.00881966 -0.00539175 6.00041e-10
   vertex -0.0090398 -0.00498642 5.76327e-10
   vertex -0.00873921 -0.00552288 6.08798e-10
  endloop
 endfacet
 facet normal -1.19191e-07 -1.27314e-07 -1
  outer loop
   vertex -0.00873921 -0.00552288 6.08798e-10
   vertex -0.0090398 -0.00498642 5.76327e-10
   vertex -0.0083604 -0.00609253 6.36172e-10
  endloop
 endfacet
 facet normal 6.35598e-07 4.0543e-07 -1
  outer loop
   vertex -0.00822364 -0.00629351 6.41609e-10
   vertex -0.0083604 -0.00609253 6.36172e-10
   vertex -0.00812448 -0.00642719 6.50445e-10
  endloop
 endfacet
 facet normal -2.63869e-08 -6.12526e-08 -1
  outer loop
   vertex -0.00812448 -0.00642719 6.50445e-10
   vertex -0.0083604 -0.00609253 6.36172e-10
   vertex -0.00704999 -0.00767896 6.98767e-10
  endloop
 endfacet
 facet normal -6.91597e-08 -9.65836e-08 -1
  outer loop
   vertex -0.0083604 -0.00609253 6.36172e-10
   vertex -0.0090398 -0.00498642 5.76327e-10
   vertex -0.00704999 -0.00767896 6.98767e-10
  endloop
 endfacet
 facet normal -2.64918e-08 -6.54405e-08 -1
  outer loop
   vertex 0.00726507 0.00655133 -6.32059e-10
   vertex 0.0105213 0.00341059 -5.12793e-10
   vertex 0.00712045 0.00662682 -6.33168e-10
  endloop
 endfacet
 facet normal -2.83957e-08 -6.74537e-08 -1
  outer loop
   vertex 0.00712045 0.00662682 -6.33168e-10
   vertex 0.0105213 0.00341059 -5.12793e-10
   vertex 0.00663699 0.00685815 -6.35044e-10
  endloop
 endfacet
 facet normal -5.89075e-08 -1.01831e-07 -1
  outer loop
   vertex 0.00663699 0.00685815 -6.35044e-10
   vertex 0.0105213 0.00341059 -5.12793e-10
   vertex 0.00630779 0.00700673 -6.30782e-10
  endloop
 endfacet
 facet normal 2.59076e-08 -2.4544e-09 -1
  outer loop
   vertex 0.00630779 0.00700673 -6.30782e-10
   vertex 0.0105213 0.00341059 -5.12793e-10
   vertex 0.00611508 0.00709143 -6.35983e-10
  endloop
 endfacet
 facet normal -2.47444e-08 -6.3089e-08 -1
  outer loop
   vertex 0.00611508 0.00709143 -6.35983e-10
   vertex 0.0105213 0.00341059 -5.12793e-10
   vertex 0.00578389 0.00722467 -6.36193e-10
  endloop
 endfacet
 facet normal -2.13519e-08 -5.88752e-08 -1
  outer loop
   vertex 0.00578389 0.00722467 -6.36193e-10
   vertex 0.0105213 0.00341059 -5.12793e-10
   vertex 0.00494491 0.00752351 -6.35874e-10
  endloop
 endfacet
 facet normal -2.44666e-08 -6.30983e-08 -1
  outer loop
   vertex 0.00494491 0.00752351 -6.35874e-10
   vertex 0.0105213 0.00341059 -5.12793e-10
   vertex 0.00458419 0.00763695 -6.34206e-10
  endloop
 endfacet
 facet normal -9.5181e-08 -9.60863e-08 -1
  outer loop
   vertex -0.00932565 -0.00432102 5.42634e-10
   vertex -0.00939266 -0.00411973 5.29671e-10
   vertex -0.00930403 -0.00437567 5.45828e-10
  endloop
 endfacet
 facet normal -1.23193e-07 -1.05786e-07 -1
  outer loop
   vertex -0.00930403 -0.00437567 5.45828e-10
   vertex -0.00939266 -0.00411973 5.29671e-10
   vertex -0.00907927 -0.00490867 5.74522e-10
  endloop
 endfacet
 facet normal 2.66342e-09 -5.57919e-08 -1
  outer loop
   vertex -0.00939266 -0.00411973 5.29671e-10
   vertex -0.0095362 -0.00367021 5.04209e-10
   vertex -0.00907927 -0.00490867 5.74522e-10
  endloop
 endfacet
 facet normal -1.84358e-07 -1.24794e-07 -1
  outer loop
   vertex -0.0095362 -0.00367021 5.04209e-10
   vertex -0.0096477 -0.0032987 4.78403e-10
   vertex -0.00907927 -0.00490867 5.74522e-10
  endloop
 endfacet
 facet normal 2.59641e-07 3.19683e-08 -1
  outer loop
   vertex -0.0096477 -0.0032987 4.78403e-10
   vertex -0.00979482 -0.00279608 4.56272e-10
   vertex -0.00907927 -0.00490867 5.74522e-10
  endloop
 endfacet
 facet normal -1.41997e-08 -1.12225e-07 -1
  outer loop
   vertex 0.00519733 -0.00774952 3.63858e-10
   vertex 0.00479013 -0.00793784 3.90774e-10
   vertex 0.00544253 -0.00762418 3.4631e-10
  endloop
 endfacet
 facet normal -1.61981e-07 1.95158e-07 -1
  outer loop
   vertex 0.00544253 -0.00762418 3.4631e-10
   vertex 0.00479013 -0.00793784 3.90774e-10
   vertex 0.00611025 -0.00725397 3.10401e-10
  endloop
 endfacet
 facet normal -6.41329e-08 3.38686e-08 -1
  outer loop
   vertex -0.00226394 0.00885044 -5.13011e-10
   vertex -0.00208038 0.00885079 -5.24771e-10
   vertex -0.00843735 0.0065184 -1.96076e-10
  endloop
 endfacet
 facet normal -2.81163e-08 -6.42952e-08 -1
  outer loop
   vertex -0.00208038 0.00885079 -5.24771e-10
   vertex -0.00157314 0.00883028 -5.37714e-10
   vertex -0.00843735 0.0065184 -1.96076e-10
  endloop
 endfacet
 facet normal -1.8276e-07 -1.02104e-07 -1
  outer loop
   vertex 0.0105615 0.00332115 -5.11007e-10
   vertex 0.0109774 0.0015597 -4.07156e-10
   vertex 0.0105213 0.00341059 -5.12793e-10
  endloop
 endfacet
 facet normal -2.44694e-08 -6.31022e-08 -1
  outer loop
   vertex 0.0105213 0.00341059 -5.12793e-10
   vertex 0.0109774 0.0015597 -4.07156e-10
   vertex 0.00458419 0.00763695 -6.34206e-10
  endloop
 endfacet
 facet normal -1.79513e-08 -5.62452e-08 -1
  outer loop
   vertex 0.00458419 0.00763695 -6.34206e-10
   vertex 0.0109774 0.0015597 -4.07156e-10
   vertex 0.00438125 0.00770031 -6.34127e-10
  endloop
 endfacet
 facet normal -2.73591e-08 -6.6351e-08 -1
  outer loop
   vertex 0.00438125 0.00770031 -6.34127e-10
   vertex 0.0109774 0.0015597 -4.07156e-10
   vertex 0.00409074 0.00779001 -6.32131e-10
  endloop
 endfacet
 facet normal -4.73984e-08 -8.85013e-08 -1
  outer loop
   vertex 0.00409074 0.00779001 -6.32131e-10
   vertex 0.0109774 0.0015597 -4.07156e-10
   vertex 0.00366654 0.00792127 -6.23641e-10
  endloop
 endfacet
 facet normal -1.78921e-07 -5.22237e-08 -1
  outer loop
   vertex 0.010991 -0.00020384 -2.93449e-10
   vertex 0.0109245 -0.000805764 -2.50117e-10
   vertex 0.010999 -5.39227e-05 -3.02704e-10
  endloop
 endfacet
 facet normal -6.30126e-08 -6.37036e-08 -1
  outer loop
   vertex 0.010999 -5.39227e-05 -3.02704e-10
   vertex 0.0109245 -0.000805764 -2.50117e-10
   vertex 0.0109831 0.00147493 -3.99097e-10
  endloop
 endfacet
 facet normal -3.49146e-07 3.30094e-07 -1
  outer loop
   vertex 0.00777119 -0.00606958 1.81715e-10
   vertex 0.00730038 -0.00644811 2.21147e-10
   vertex 0.00789183 -0.00596179 1.75174e-10
  endloop
 endfacet
 facet normal 9.62704e-09 -1.06242e-07 -1
  outer loop
   vertex 0.00789183 -0.00596179 1.75174e-10
   vertex 0.00730038 -0.00644811 2.21147e-10
   vertex 0.00827954 -0.00559304 1.3973e-10
  endloop
 endfacet
 facet normal 5.62047e-07 -3.29351e-07 -1
  outer loop
   vertex -0.00935438 0.00508947 -7.73821e-11
   vertex -0.00934262 0.0051139 -7.88191e-11
   vertex -0.00939113 0.00500249 -6.93898e-11
  endloop
 endfacet
 facet normal -7.42919e-08 -5.22911e-08 -1
  outer loop
   vertex -0.00934262 0.0051139 -7.88191e-11
   vertex -0.00929536 0.00520077 -8.68726e-11
   vertex -0.00939113 0.00500249 -6.93898e-11
  endloop
 endfacet
 facet normal 3.24849e-08 -1.03863e-07 -1
  outer loop
   vertex -0.00929536 0.00520077 -8.68726e-11
   vertex -0.00849609 0.00644861 -1.90512e-10
   vertex -0.00939113 0.00500249 -6.93898e-11
  endloop
 endfacet
 facet normal -2.91406e-08 -6.57212e-08 -1
  outer loop
   vertex -0.00939113 0.00500249 -6.93898e-11
   vertex -0.00849609 0.00644861 -1.90512e-10
   vertex -0.0102374 0.000483949 2.52235e-10
  endloop
 endfacet
 facet normal -1.05669e-07 -7.68143e-08 -1
  outer loop
   vertex -0.0100686 -0.00169111 3.91065e-10
   vertex -0.0101801 -0.000881067 3.40615e-10
   vertex -0.0100333 -0.00187265 4.01274e-10
  endloop
 endfacet
 facet normal -1.72279e-08 -6.37238e-08 -1
  outer loop
   vertex -0.0100333 -0.00187265 4.01274e-10
   vertex -0.0101801 -0.000881067 3.40615e-10
   vertex -0.00983076 -0.00268068 4.49276e-10
  endloop
 endfacet
 facet normal -1.0744e-07 8.98736e-08 -1
  outer loop
   vertex 0.00479013 -0.00793784 3.90774e-10
   vertex 0.0046165 -0.00801037 4.0291e-10
   vertex 0.00611025 -0.00725397 3.10401e-10
  endloop
 endfacet
 facet normal 5.99424e-09 -1.34137e-07 -1
  outer loop
   vertex 0.0046165 -0.00801037 4.0291e-10
   vertex 0.00402839 -0.00824236 4.30502e-10
   vertex 0.00611025 -0.00725397 3.10401e-10
  endloop
 endfacet
 facet normal -1.88441e-08 -8.182e-08 -1
  outer loop
   vertex 0.00402839 -0.00824236 4.30502e-10
   vertex 0.00350143 -0.00844748 4.57216e-10
   vertex 0.00611025 -0.00725397 3.10401e-10
  endloop
 endfacet
 facet normal -3.24066e-07 3.92553e-07 -1
  outer loop
   vertex 0.00628775 -0.00714879 2.9417e-10
   vertex 0.00611025 -0.00725397 3.10401e-10
   vertex 0.00673022 -0.00686247 2.63174e-10
  endloop
 endfacet
 facet normal -3.94489e-09 -1.14387e-07 -1
  outer loop
   vertex 0.00611025 -0.00725397 3.10401e-10
   vertex 0.00350143 -0.00844748 4.57216e-10
   vertex 0.00673022 -0.00686247 2.63174e-10
  endloop
 endfacet
 facet normal -1.5875e-08 6.10231e-08 -1
  outer loop
   vertex -0.000144356 0.0086862 -5.70403e-10
   vertex 0.000195123 0.00863362 -5.79e-10
   vertex -0.00073223 0.00875807 -5.56684e-10
  endloop
 endfacet
 facet normal -2.4265e-08 -1.19766e-07 -1
  outer loop
   vertex -0.000759992 -0.00986252 6.69846e-10
   vertex -0.00215649 -0.0099674 7.16293e-10
   vertex -0.000670983 -0.00984456 6.65535e-10
  endloop
 endfacet
 facet normal -2.93343e-08 -5.84639e-08 -1
  outer loop
   vertex -0.000670983 -0.00984456 6.65535e-10
   vertex -0.00215649 -0.0099674 7.16293e-10
   vertex 0.000955695 -0.00939583 5.91583e-10
  endloop
 endfacet
 facet normal -3.19925e-08 -5.27863e-08 -1
  outer loop
   vertex -0.00843735 0.0065184 -1.96076e-10
   vertex -0.00157314 0.00883028 -5.37714e-10
   vertex -0.00849609 0.00644861 -1.90512e-10
  endloop
 endfacet
 facet normal -2.73642e-08 -6.62398e-08 -1
  outer loop
   vertex -0.00849609 0.00644861 -1.90512e-10
   vertex -0.00157314 0.00883028 -5.37714e-10
   vertex -0.0102374 0.000483949 2.52235e-10
  endloop
 endfacet
 facet normal 1.96475e-07 -5.376e-08 -1
  outer loop
   vertex -0.0101943 -0.000742949 3.30397e-10
   vertex -0.0102385 0.000329904 2.64037e-10
   vertex -0.0101801 -0.000881067 3.40615e-10
  endloop
 endfacet
 facet normal -1.95888e-08 -6.4182e-08 -1
  outer loop
   vertex -0.0101801 -0.000881067 3.40615e-10
   vertex -0.0102385 0.000329904 2.64037e-10
   vertex -0.00983076 -0.00268068 4.49276e-10
  endloop
 endfacet
 facet normal -5.64251e-08 -9.8875e-08 -1
  outer loop
   vertex 0.0109774 0.0015597 -4.07156e-10
   vertex 0.0109831 0.00147493 -3.99097e-10
   vertex 0.00366654 0.00792127 -6.23641e-10
  endloop
 endfacet
 facet normal -2.62686e-08 -6.46475e-08 -1
  outer loop
   vertex 0.0109831 0.00147493 -3.99097e-10
   vertex 0.0109245 -0.000805764 -2.50117e-10
   vertex 0.00366654 0.00792127 -6.23641e-10
  endloop
 endfacet
 facet normal -8.18611e-08 -2.68002e-07 -1
  outer loop
   vertex 0.0023284 0.00824955 -6.00558e-10
   vertex 0.00345492 0.00798032 -6.20622e-10
   vertex 0.00201376 0.00831291 -5.91783e-10
  endloop
 endfacet
 facet normal 4.97345e-08 3.02214e-07 -1
  outer loop
   vertex 0.00201376 0.00831291 -5.91783e-10
   vertex 0.00345492 0.00798032 -6.20622e-10
   vertex 0.00164426 0.00837812 -5.90454e-10
  endloop
 endfacet
 facet normal -1.83831e-07 3.29013e-08 -1
  outer loop
   vertex 0.00876255 -0.00509422 8.86137e-11
   vertex 0.00868645 -0.00517636 9.98999e-11
   vertex 0.0104818 -0.00234179 -1.36872e-10
  endloop
 endfacet
 facet normal -4.47173e-08 -5.52079e-08 -1
  outer loop
   vertex 0.00868645 -0.00517636 9.98999e-11
   vertex 0.00834372 -0.00552956 1.34725e-10
   vertex 0.0104818 -0.00234179 -1.36872e-10
  endloop
 endfacet
 facet normal 6.43264e-07 -9.79324e-07 -1
  outer loop
   vertex 0.00728562 -0.00646 2.23295e-10
   vertex 0.00719175 -0.00652823 2.2973e-10
   vertex 0.00730038 -0.00644811 2.21147e-10
  endloop
 endfacet
 facet normal -5.64709e-08 -3.05514e-08 -1
  outer loop
   vertex 0.00730038 -0.00644811 2.21147e-10
   vertex 0.00719175 -0.00652823 2.2973e-10
   vertex 0.00827954 -0.00559304 1.3973e-10
  endloop
 endfacet
 facet normal -2.05173e-08 -7.23721e-08 -1
  outer loop
   vertex 0.00719175 -0.00652823 2.2973e-10
   vertex 0.00679873 -0.00681701 2.58693e-10
   vertex 0.00827954 -0.00559304 1.3973e-10
  endloop
 endfacet
 facet normal 1.4419e-08 -1.09615e-07 -1
  outer loop
   vertex -0.00157314 0.00883028 -5.37714e-10
   vertex -0.00147874 0.00882548 -5.35827e-10
   vertex -0.0102374 0.000483949 2.52235e-10
  endloop
 endfacet
 facet normal -3.21662e-08 -6.06998e-08 -1
  outer loop
   vertex -0.00147874 0.00882548 -5.35827e-10
   vertex -0.000807377 0.00876791 -5.53928e-10
   vertex -0.0102374 0.000483949 2.52235e-10
  endloop
 endfacet
 facet normal -1.72544e-08 -7.76746e-08 -1
  outer loop
   vertex -0.0102374 0.000483949 2.52235e-10
   vertex -0.000807377 0.00876791 -5.53928e-10
   vertex -0.0102387 0.000388327 2.59684e-10
  endloop
 endfacet
 facet normal -1.93974e-07 -1.21675e-07 -1
  outer loop
   vertex -0.00907927 -0.00490867 5.74522e-10
   vertex -0.00979482 -0.00279608 4.56272e-10
   vertex -0.0090398 -0.00498642 5.76327e-10
  endloop
 endfacet
 facet normal -2.3681e-08 -6.29743e-08 -1
  outer loop
   vertex -0.0090398 -0.00498642 5.76327e-10
   vertex -0.00979482 -0.00279608 4.56272e-10
   vertex -0.00704999 -0.00767896 6.98767e-10
  endloop
 endfacet
 facet normal -1.36078e-07 -8.34726e-07 -1
  outer loop
   vertex 0.000195123 0.00863362 -5.79e-10
   vertex 0.000395242 0.00859972 -5.77928e-10
   vertex -0.00073223 0.00875807 -5.56684e-10
  endloop
 endfacet
 facet normal -3.74886e-08 -1.32762e-07 -1
  outer loop
   vertex 0.000395242 0.00859972 -5.77928e-10
   vertex 0.000916385 0.00851103 -5.85691e-10
   vertex -0.00073223 0.00875807 -5.56684e-10
  endloop
 endfacet
 facet normal -4.58461e-08 -4.69464e-07 -1
  outer loop
   vertex -0.0021795 -0.00996707 7.17192e-10
   vertex -0.00232412 -0.00995884 7.19956e-10
   vertex -0.00215649 -0.0099674 7.16293e-10
  endloop
 endfacet
 facet normal -2.58174e-08 -7.76135e-08 -1
  outer loop
   vertex -0.00215649 -0.0099674 7.16293e-10
   vertex -0.00232412 -0.00995884 7.19956e-10
   vertex 0.000955695 -0.00939583 5.91583e-10
  endloop
 endfacet
 facet normal -2.64254e-08 -7.40713e-08 -1
  outer loop
   vertex -0.00232412 -0.00995884 7.19956e-10
   vertex -0.00280959 -0.00993327 7.30891e-10
   vertex 0.000955695 -0.00939583 5.91583e-10
  endloop
 endfacet
 facet normal -4.06294e-08 -9.01992e-08 -1
  outer loop
   vertex -0.00696544 -0.0077634 7.0363e-10
   vertex -0.00702165 -0.00770764 7.00884e-10
   vertex -0.00286482 -0.00992759 7.32232e-10
  endloop
 endfacet
 facet normal 2.5534e-07 -1.47937e-07 -1
  outer loop
   vertex 0.0105092 -0.00227369 -1.3993e-10
   vertex 0.0104818 -0.00234179 -1.36872e-10
   vertex 0.0109169 -0.000849561 -2.46524e-10
  endloop
 endfacet
 facet normal -3.09085e-08 -6.44695e-08 -1
  outer loop
   vertex 0.0104818 -0.00234179 -1.36872e-10
   vertex 0.00834372 -0.00552956 1.34725e-10
   vertex 0.0109169 -0.000849561 -2.46524e-10
  endloop
 endfacet
 facet normal 5.70616e-09 -8.4601e-08 -1
  outer loop
   vertex 0.00834372 -0.00552956 1.34725e-10
   vertex 0.00827954 -0.00559304 1.3973e-10
   vertex 0.0109169 -0.000849561 -2.46524e-10
  endloop
 endfacet
 facet normal -2.41131e-08 -6.80217e-08 -1
  outer loop
   vertex 0.00827954 -0.00559304 1.3973e-10
   vertex 0.00679873 -0.00681701 2.58693e-10
   vertex 0.0109169 -0.000849561 -2.46524e-10
  endloop
 endfacet
 facet normal -4.30491e-08 -4.86425e-08 -1
  outer loop
   vertex -0.000807377 0.00876791 -5.53928e-10
   vertex -0.00073223 0.00875807 -5.56684e-10
   vertex -0.0102387 0.000388327 2.59684e-10
  endloop
 endfacet
 facet normal -2.75255e-08 -6.62743e-08 -1
  outer loop
   vertex -0.00073223 0.00875807 -5.56684e-10
   vertex 0.000916385 0.00851103 -5.85691e-10
   vertex -0.0102387 0.000388327 2.59684e-10
  endloop
 endfacet
 facet normal -3.18735e-08 -7.38039e-08 -1
  outer loop
   vertex -0.00286482 -0.00992759 7.32232e-10
   vertex -0.00702165 -0.00770764 7.00884e-10
   vertex -0.00280959 -0.00993327 7.30891e-10
  endloop
 endfacet
 facet normal -2.76142e-08 -6.57429e-08 -1
  outer loop
   vertex -0.00280959 -0.00993327 7.30891e-10
   vertex -0.00702165 -0.00770764 7.00884e-10
   vertex 0.000955695 -0.00939583 5.91583e-10
  endloop
 endfacet
 facet normal -1.70202e-08 -7.29165e-08 -1
  outer loop
   vertex 0.00679873 -0.00681701 2.58693e-10
   vertex 0.00673022 -0.00686247 2.63174e-10
   vertex 0.0109169 -0.000849561 -2.46524e-10
  endloop
 endfacet
 facet normal -2.80846e-08 -6.52126e-08 -1
  outer loop
   vertex 0.00673022 -0.00686247 2.63174e-10
   vertex 0.00350143 -0.00844748 4.57216e-10
   vertex 0.0109169 -0.000849561 -2.46524e-10
  endloop
 endfacet
 facet normal 1.34684e-07 -5.09851e-07 -1
  outer loop
   vertex 0.00219491 -0.00896327 5.27026e-10
   vertex 0.00167017 -0.00915268 5.52925e-10
   vertex 0.00240316 -0.00888375 5.14532e-10
  endloop
 endfacet
 facet normal -7.32172e-08 5.67986e-08 -1
  outer loop
   vertex 0.00240316 -0.00888375 5.14532e-10
   vertex 0.00167017 -0.00915268 5.52925e-10
   vertex 0.00281529 -0.00872105 4.93598e-10
  endloop
 endfacet
 facet normal 5.3975e-09 1.00404e-07 -1
  outer loop
   vertex 0.00345492 0.00798032 -6.20622e-10
   vertex 0.00360303 0.00793971 -6.239e-10
   vertex 0.00164426 0.00837812 -5.90454e-10
  endloop
 endfacet
 facet normal -2.14793e-08 -7.45778e-08 -1
  outer loop
   vertex -0.0102387 0.000388327 2.59684e-10
   vertex 0.000916385 0.00851103 -5.85691e-10
   vertex -0.0102385 0.000329904 2.64037e-10
  endloop
 endfacet
 facet normal -2.8244e-08 -6.53542e-08 -1
  outer loop
   vertex -0.0102385 0.000329904 2.64037e-10
   vertex 0.000916385 0.00851103 -5.85691e-10
   vertex -0.00983076 -0.00268068 4.49276e-10
  endloop
 endfacet
 facet normal -1.10108e-08 -5.19581e-08 -1
  outer loop
   vertex 0.00366654 0.00792127 -6.23641e-10
   vertex 0.0109245 -0.000805764 -2.50117e-10
   vertex 0.00360303 0.00793971 -6.239e-10
  endloop
 endfacet
 facet normal -3.27832e-08 -7.01854e-08 -1
  outer loop
   vertex 0.00360303 0.00793971 -6.239e-10
   vertex 0.0109245 -0.000805764 -2.50117e-10
   vertex 0.00164426 0.00837812 -5.90454e-10
  endloop
 endfacet
 facet normal -2.64725e-08 -6.38085e-08 -1
  outer loop
   vertex 0.00164426 0.00837812 -5.90454e-10
   vertex 0.0109245 -0.000805764 -2.50117e-10
   vertex 0.0014802 0.00840857 -5.88054e-10
  endloop
 endfacet
 facet normal -1.33313e-08 -5.03393e-08 -1
  outer loop
   vertex 0.0014802 0.00840857 -5.88054e-10
   vertex 0.0109245 -0.000805764 -2.50117e-10
   vertex 0.000938567 0.00850733 -5.85805e-10
  endloop
 endfacet
 facet normal -2.70639e-08 -6.64874e-08 -1
  outer loop
   vertex -0.00983076 -0.00268068 4.49276e-10
   vertex 0.000916385 0.00851103 -5.85691e-10
   vertex -0.00981357 -0.0027352 4.52436e-10
  endloop
 endfacet
 facet normal -2.32196e-08 -7.01552e-08 -1
  outer loop
   vertex -0.00981357 -0.0027352 4.52436e-10
   vertex 0.000916385 0.00851103 -5.85691e-10
   vertex -0.00979482 -0.00279608 4.56272e-10
  endloop
 endfacet
 facet normal -2.81487e-08 -6.54858e-08 -1
  outer loop
   vertex -0.00979482 -0.00279608 4.56272e-10
   vertex 0.000916385 0.00851103 -5.85691e-10
   vertex -0.00704999 -0.00767896 6.98767e-10
  endloop
 endfacet
 facet normal -3.68831e-08 -7.55926e-08 -1
  outer loop
   vertex 0.0109245 -0.000805764 -2.50117e-10
   vertex 0.0109169 -0.000849561 -2.46524e-10
   vertex 0.000938567 0.00850733 -5.85805e-10
  endloop
 endfacet
 facet normal -2.75963e-08 -6.56891e-08 -1
  outer loop
   vertex 0.0109169 -0.000849561 -2.46524e-10
   vertex 0.00350143 -0.00844748 4.57216e-10
   vertex 0.000938567 0.00850733 -5.85805e-10
  endloop
 endfacet
 facet normal -3.32625e-09 -6.20205e-08 -1
  outer loop
   vertex 0.00350143 -0.00844748 4.57216e-10
   vertex 0.00345655 -0.00846375 4.58374e-10
   vertex 0.000938567 0.00850733 -5.85805e-10
  endloop
 endfacet
 facet normal -3.56661e-08 -6.68187e-08 -1
  outer loop
   vertex 0.00345655 -0.00846375 4.58374e-10
   vertex 0.00330616 -0.00852504 4.67834e-10
   vertex 0.000938567 0.00850733 -5.85805e-10
  endloop
 endfacet
 facet normal -2.83589e-08 -6.5803e-08 -1
  outer loop
   vertex 0.00330616 -0.00852504 4.67834e-10
   vertex 0.00291605 -0.0086814 4.89186e-10
   vertex 0.000938567 0.00850733 -5.85805e-10
  endloop
 endfacet
 facet normal -1.83547e-08 -6.46521e-08 -1
  outer loop
   vertex 0.00291605 -0.0086814 4.89186e-10
   vertex 0.00281529 -0.00872105 4.93598e-10
   vertex 0.000938567 0.00850733 -5.85805e-10
  endloop
 endfacet
 facet normal -2.70802e-08 -6.56026e-08 -1
  outer loop
   vertex 0.00281529 -0.00872105 4.93598e-10
   vertex 0.00167017 -0.00915268 5.52925e-10
   vertex 0.000938567 0.00850733 -5.85805e-10
  endloop
 endfacet
 facet normal -1.75153e-08 -6.52063e-08 -1
  outer loop
   vertex 0.00167017 -0.00915268 5.52925e-10
   vertex 0.00159017 -0.00918079 5.56159e-10
   vertex 0.000938567 0.00850733 -5.85805e-10
  endloop
 endfacet
 facet normal -3.33312e-08 -6.57889e-08 -1
  outer loop
   vertex 0.00159017 -0.00918079 5.56159e-10
   vertex 0.000979159 -0.00938831 5.90177e-10
   vertex 0.000938567 0.00850733 -5.85805e-10
  endloop
 endfacet
 facet normal -3.70728e-08 -1.10439e-07 -1
  outer loop
   vertex -0.00702165 -0.00770764 7.00884e-10
   vertex -0.00704999 -0.00767896 6.98767e-10
   vertex 0.000955695 -0.00939583 5.91583e-10
  endloop
 endfacet
 facet normal -2.75007e-08 -6.58047e-08 -1
  outer loop
   vertex -0.00704999 -0.00767896 6.98767e-10
   vertex 0.000916385 0.00851103 -5.85691e-10
   vertex 0.000955695 -0.00939583 5.91583e-10
  endloop
 endfacet
 facet normal 2.3556e-06 -7.53483e-06 -1
  outer loop
   vertex 0.000971868 -0.00939071 5.91079e-10
   vertex 0.000955695 -0.00939583 5.91583e-10
   vertex 0.000979159 -0.00938831 5.90177e-10
  endloop
 endfacet
 facet normal -1.06432e-06 -6.34987e-06 -1
  outer loop
   vertex 0.000932785 0.00850834 -5.86074e-10
   vertex 0.000938567 0.00850733 -5.85805e-10
   vertex 0.000916385 0.00851103 -5.85691e-10
  endloop
 endfacet
 facet normal -3.88246e-08 -6.58295e-08 -1
  outer loop
   vertex 0.000955695 -0.00939583 5.91583e-10
   vertex 0.000916385 0.00851103 -5.85691e-10
   vertex 0.000979159 -0.00938831 5.90177e-10
  endloop
 endfacet
 facet normal -1.61282e-08 -6.57499e-08 -1
  outer loop
   vertex 0.000938567 0.00850733 -5.85805e-10
   vertex 0.000979159 -0.00938831 5.90177e-10
   vertex 0.000916385 0.00851103 -5.85691e-10
  endloop
 endfacet
endsolid
